<?xml version="1.0" encoding="utf-8"?>
<!-- Generator: Adobe Illustrator 25.2.1, SVG Export Plug-In . SVG Version: 6.00 Build 0)  -->
<svg version="1.1" id="Laag_1" xmlns="http://www.w3.org/2000/svg" xmlns:xlink="http://www.w3.org/1999/xlink" x="0px" y="0px"
	 viewBox="0 0 150 80" style="enable-background:new 0 0 150 80;" xml:space="preserve">
<style type="text/css">
	.st0{fill:#E6007E;}
</style>
<g id="Page-1">
	<g id="Group-4" transform="translate(0.000000, -2.000000)">
		<g>
			<path class="st0" d="M74.1,18.6l-47-9.2c-4.7-0.9-9.5,0-13.5,2.7c-3.4,2.3-5.8,5.5-7,9.3h2.1c1.2-3.1,3.2-5.7,6-7.6
				c3.5-2.4,7.8-3.2,12-2.4l47,9.2c7.5,1.5,12.9,8.1,12.9,15.7v4.6c0,7.6-5.4,14.2-12.9,15.7L61.6,59L64,70.3l-13.5-9.6l-24,4.4
				c-1,0.2-1.9,0.3-2.9,0.3c-6.7,0-12.5-4.2-14.8-10.1H6.7c2.5,7,9.1,12.1,17,12.1c1.1,0,2.2-0.1,3.3-0.3l23-4.3l17,12.1l-3.1-14.4
				l10.2-2c8.4-1.7,14.5-9.1,14.5-17.7v-4.6C88.6,27.8,82.5,20.2,74.1,18.6z"/>
		</g>
		<path id="ADVIES" class="st0" d="M2.4,44.1l1.1-2.8h5.2l1.1,2.8h2.4L7,32.1H5.2L0,44.1H2.4z M8,39.5H4.2l1.9-4.9L8,39.5z
			 M19.6,44.1c0.8,0,1.6-0.1,2.4-0.3s1.5-0.6,2.1-1.1s1.2-1.1,1.5-1.9c0.3-0.8,0.6-1.7,0.6-2.7c0-1.1-0.2-2.1-0.6-2.8
			c-0.4-0.8-0.9-1.4-1.5-1.9s-1.3-0.8-2.1-1s-1.6-0.3-2.4-0.3l0,0h-4.3v12H19.6z M19.3,42.3h-1.8V34h1.8c0.6,0,1.1,0.1,1.7,0.2
			s1.1,0.3,1.5,0.6s0.8,0.7,1.1,1.3c0.3,0.5,0.4,1.2,0.4,2.1c0,0.8-0.1,1.5-0.4,2c-0.3,0.5-0.6,1-1.1,1.3c-0.4,0.3-0.9,0.5-1.5,0.7
			C20.4,42.2,19.8,42.3,19.3,42.3L19.3,42.3z M35.1,44.1l4.8-12h-2.3l-3.3,9.3h-0.1l-3.3-9.3h-2.4l4.8,12
			C33.3,44.1,35.1,44.1,35.1,44.1z M45.1,44.1v-12H43v12H45.1z M57.9,44.1v-1.9h-6.1v-3.4h5.5V37h-5.5v-3h5.8v-1.9h-8v12H57.9z
			 M65.1,44.5c0.6,0,1.2-0.1,1.7-0.2c0.5-0.2,1-0.4,1.4-0.7s0.7-0.7,1-1.2c0.2-0.5,0.4-1,0.4-1.7c0-0.6-0.1-1.1-0.3-1.5
			c-0.2-0.4-0.5-0.7-0.8-1s-0.7-0.5-1.1-0.6s-0.8-0.3-1.2-0.4c-0.3-0.1-0.7-0.2-0.9-0.3c-0.3-0.1-0.5-0.2-0.7-0.4s-0.4-0.3-0.5-0.5
			s-0.2-0.4-0.2-0.7s0.1-0.5,0.2-0.8c0.1-0.2,0.3-0.4,0.5-0.5s0.4-0.2,0.7-0.3c0.2-0.1,0.5-0.1,0.7-0.1c0.4,0,0.8,0.1,1.2,0.3
			s0.7,0.4,1,0.7l0,0l1.4-1.5c-0.5-0.4-1-0.8-1.6-1s-1.2-0.3-1.9-0.3c-0.5,0-1.1,0.1-1.6,0.2c-0.5,0.1-1,0.4-1.4,0.6
			c-0.4,0.3-0.7,0.7-1,1.1c-0.3,0.4-0.4,1-0.4,1.6s0.1,1,0.3,1.4s0.4,0.7,0.7,1c0.3,0.3,0.6,0.5,1,0.6c0.4,0.2,0.7,0.3,1.1,0.4l0,0
			l1.1,0.4c0.3,0.1,0.6,0.2,0.9,0.4c0.2,0.2,0.4,0.3,0.6,0.5c0.1,0.2,0.2,0.5,0.2,0.8s-0.1,0.6-0.2,0.8s-0.3,0.4-0.5,0.6
			c-0.2,0.1-0.4,0.3-0.7,0.3c-0.3,0.1-0.5,0.1-0.8,0.1c-0.5,0-1-0.1-1.5-0.4c-0.5-0.2-0.9-0.6-1.2-1l0,0L61,42.8
			c0.5,0.6,1.1,1,1.8,1.3S64.3,44.5,65.1,44.5z"/>
	</g>
</g>
</svg>
