<?xml version="1.0" encoding="utf-8"?>
<svg width="127px" height="69px" viewbox="0 0 127 69" version="1.1" xmlns:xlink="http://www.w3.org/1999/xlink" xmlns="http://www.w3.org/2000/svg">
  <g id="Group-4" transform="translate(1 1)">
    <path d="M0 20.6687L0 43.0635Q0 43.5295 0.0255276 43.9948Q0.0510551 44.4601 0.102034 44.9232Q0.153012 45.3864 0.229288 45.8461Q0.305565 46.3058 0.406909 46.7606Q0.508254 47.2154 0.634364 47.664Q0.760473 48.1126 0.910968 48.5536Q1.06146 48.9946 1.23589 49.4267Q1.41032 49.8588 1.60816 50.2807Q1.806 50.7026 2.02665 51.113Q2.2473 51.5235 2.49011 51.9212Q2.73291 52.3189 2.99714 52.7027Q3.26137 53.0865 3.54623 53.4553Q3.83109 53.8241 4.13573 54.1767Q4.44036 54.5293 4.76386 54.8647Q5.08735 55.2001 5.42873 55.5172Q5.77011 55.8344 6.12836 56.1324Q6.4866 56.4304 6.86063 56.7083Q7.23466 56.9862 7.62335 57.2432Q8.01205 57.5002 8.41424 57.7355Q8.81643 57.9709 9.2309 58.1838Q9.64538 58.3967 10.0709 58.5867Q10.4964 58.7766 10.9317 58.9429Q11.367 59.1092 11.8107 59.2514Q12.2545 59.3936 12.7053 59.5113Q13.1562 59.629 13.6129 59.7219Q14.0695 59.8147 14.5305 59.8823Q14.9916 59.95 15.4556 59.9923Q15.9197 60.0346 16.3853 60.0514Q16.851 60.0683 17.3169 60.0596Q17.7828 60.0508 18.2475 60.0166Q18.7122 59.9824 19.1744 59.9228Q19.6365 59.8631 20.0947 59.7783L43.643 55.4169L58.9244 66.29L56.1123 53.4053L68.557 50.9515Q68.8825 50.8873 69.2049 50.8092Q69.5274 50.7311 69.8461 50.6392Q70.1649 50.5473 70.4795 50.4418Q70.794 50.3362 71.1037 50.2173Q71.4134 50.0983 71.7178 49.9662Q72.0221 49.834 72.3204 49.6889Q72.6188 49.5438 72.9106 49.386Q73.2025 49.2282 73.4872 49.058Q73.772 48.8878 74.0492 48.7055Q74.3264 48.5232 74.5955 48.3291Q74.8646 48.1351 75.1252 47.9297Q75.3857 47.7242 75.6371 47.5078Q75.8886 47.2914 76.1305 47.0643Q76.3724 46.8372 76.6043 46.6Q76.8362 46.3628 77.0577 46.1158Q77.2793 45.8688 77.4899 45.6125Q77.7006 45.3562 77.9001 45.0911Q78.0996 44.826 78.2875 44.5526Q78.4754 44.2791 78.6513 43.9979Q78.8273 43.7166 78.991 43.428Q79.1547 43.1395 79.3059 42.8441Q79.457 42.5488 79.5953 42.2472Q79.7337 41.9457 79.8589 41.6384Q79.9841 41.3312 80.096 41.0189Q80.2079 40.7065 80.3063 40.3897Q80.4047 40.0728 80.4893 39.752Q80.574 39.4313 80.6448 39.1071Q80.7155 38.783 80.7723 38.4561Q80.8291 38.1292 80.8718 37.8002Q80.9145 37.4712 80.943 37.1407Q80.9715 36.8101 80.9857 36.4787Q81 36.1472 81 35.8154L81 29.9145Q81 29.5488 80.9843 29.1834Q80.9686 28.8181 80.9371 28.4538Q80.9057 28.0894 80.8586 27.7268Q80.8116 27.3641 80.749 27.0039Q80.6864 26.6436 80.6083 26.2863Q80.5303 25.9291 80.4369 25.5755Q80.3436 25.2219 80.2351 24.8727Q80.1266 24.5235 80.0033 24.1792Q79.8799 23.835 79.7418 23.4963Q79.6038 23.1577 79.4513 22.8254Q79.2988 22.493 79.1321 22.1675Q78.9655 21.842 78.7849 21.524Q78.6045 21.2059 78.4104 20.8959Q78.2164 20.586 78.0093 20.2846Q77.8021 19.9833 77.5822 19.6911Q77.3623 19.3989 77.13 19.1165Q76.8977 18.8341 76.6535 18.5619Q76.4093 18.2897 76.1536 18.0283Q75.8979 17.7669 75.6312 17.5167Q75.3645 17.2665 75.0872 17.028Q74.81 16.7895 74.5228 16.5632Q74.2356 16.3368 73.9389 16.123Q73.6422 15.9092 73.3366 15.7084Q73.031 15.5076 72.7171 15.3201Q72.4031 15.1326 72.0814 14.9588Q71.7597 14.7849 71.4307 14.6251Q71.1018 14.4653 70.7663 14.3197Q70.4309 14.1742 70.0894 14.0432Q69.748 13.9122 69.4013 13.7961Q69.0545 13.6799 68.7031 13.5787Q68.3517 13.4776 67.9963 13.3916Q67.6408 13.3057 67.282 13.2351L20.28 3.9893Q19.8199 3.89879 19.3555 3.83379Q18.8911 3.76878 18.4238 3.72948Q17.9566 3.69017 17.4878 3.67669Q17.0191 3.6632 16.5503 3.67558Q16.0816 3.68796 15.6142 3.72616Q15.1468 3.76436 14.6823 3.82827Q14.2177 3.89218 13.7574 3.9816Q13.2971 4.07102 12.8424 4.18568Q12.3877 4.30034 11.94 4.4399Q11.4923 4.57945 11.053 4.74348Q10.6137 4.9075 10.1841 5.09549Q9.75454 5.28348 9.33596 5.49487Q8.91738 5.70626 8.5111 5.9404Q8.10481 6.17455 7.71205 6.43073Q7.31929 6.68692 6.94125 6.96437Q6.56321 7.24182 6.20104 7.53968Q5.83887 7.83755 5.49367 8.15493Q5.14847 8.47231 4.82129 8.80824Q4.49412 9.14417 4.18596 9.49763Q3.8778 9.85108 3.58959 10.221Q3.30139 10.5909 3.03402 10.9761Q2.76664 11.3614 2.52091 11.7607Q2.27518 12.1601 2.05184 12.5725Q1.82851 12.9848 1.62824 13.4088Q1.42797 13.8328 1.25138 14.2672Q1.0748 14.7016 0.922426 15.1451Q0.770055 15.5886 0.642365 16.0398Q0.514675 16.491 0.412054 16.9485Q0.309433 17.4061 0.232192 17.8686Q0.154952 18.3312 0.103327 18.7972Q0.0517031 19.2633 0.0258515 19.7315Q0 20.1997 0 20.6687L0 20.6687Z" transform="translate(16.5 0)" id="Path-3" fill="none" fill-rule="evenodd" stroke="#E6007E" stroke-width="2" />
    <path d="M0 0L33 0L33 34L0 34L0 0Z" transform="translate(0 15)" id="Rectangle-Copy" fill="#FFFFFF" fill-rule="evenodd" stroke="none" />
    <g id="ADVIES" fill="#E6007E" transform="translate(10 7.3999023)">
      <path d="M56.9218 29.0267L56.9218 30.6702Q57.1542 30.8279 57.5402 30.9566Q57.9262 31.0853 58.3578 31.1724Q58.7894 31.2596 59.2045 31.3052Q59.6195 31.3509 59.9018 31.3509Q60.7484 31.3509 61.5121 31.1807Q62.2758 31.0105 62.861 30.6287Q63.4462 30.2469 63.7907 29.6368Q64.1351 29.0267 64.1351 28.1468Q64.1351 27.4827 63.882 26.9681Q63.6288 26.4534 63.1972 26.0301Q62.7655 25.6067 62.1928 25.2581Q61.62 24.9095 60.9809 24.594Q60.3583 24.2869 59.881 24.0296Q59.4037 23.7723 59.0717 23.4983Q58.7396 23.2244 58.5695 22.8924Q58.3993 22.5604 58.3993 22.1038Q58.3993 21.6141 58.6234 21.2737Q58.8476 20.9334 59.2045 20.7176Q59.5614 20.5018 60.018 20.4063Q60.4745 20.3108 60.931 20.3108Q62.5829 20.3108 63.6371 21.0413L63.6371 19.4725Q62.8319 19.0491 61.0722 19.0491Q60.3002 19.0491 59.5573 19.24Q58.8144 19.431 58.2333 19.8211Q57.6522 20.2112 57.2953 20.813Q56.9384 21.4148 56.9384 22.2283Q56.9384 22.8924 57.1666 23.3863Q57.3949 23.8802 57.7934 24.2703Q58.1918 24.6604 58.7313 24.9842Q59.2709 25.3079 59.8935 25.6233Q60.4828 25.9222 60.9933 26.1919Q61.5038 26.4617 61.8773 26.7564Q62.2509 27.0511 62.4625 27.408Q62.6742 27.7649 62.6742 28.2464Q62.6742 29.1429 62.0392 29.6202Q61.4042 30.0975 60.1176 30.0975Q59.744 30.0975 59.3041 30.0228Q58.8642 29.948 58.4284 29.8111Q57.9926 29.6741 57.5983 29.4749Q57.204 29.2757 56.9218 29.0267ZM9.23047 31.1517L10.7744 31.1517L6.19238 19.2483L4.74805 19.2483L0.182617 31.1517L1.73486 31.1517L2.92187 27.8147L7.96875 27.8147L9.23047 31.1517ZM14.3959 19.2483L14.3959 31.1517L17.5502 31.1517Q20.4803 31.1517 22.2277 29.4791Q23.975 27.8064 23.975 25.0506Q23.975 19.2483 17.683 19.2483L14.3959 19.2483ZM37.0344 19.2483L32.6267 31.1517L31.0911 31.1517L26.7747 19.2483L28.3269 19.2483L31.6223 28.6863Q31.78 29.1429 31.863 29.7405L31.8962 29.7405Q31.9627 29.2425 32.1702 28.6697L35.532 19.2483L37.0344 19.2483ZM40.6144 31.1517L42.0089 31.1517L42.0089 19.2483L40.6144 19.2483L40.6144 31.1517ZM53.3169 31.1517L47.0083 31.1517L47.0083 19.2483L53.0513 19.2483L53.0513 20.5101L48.4028 20.5101L48.4028 24.4695L52.7027 24.4695L52.7027 25.7229L48.4028 25.7229L48.4028 29.8899L53.3169 29.8899L53.3169 31.1517ZM15.7904 29.8899L15.7904 20.5101L17.6498 20.5101Q22.514 20.5101 22.514 25.0838Q22.514 27.3831 21.2108 28.6365Q19.9076 29.8899 17.5668 29.8899L15.7904 29.8899ZM5.64453 21.4896L7.51221 26.5613L3.38672 26.5613L5.23779 21.4896Q5.3457 21.199 5.42871 20.6927L5.46191 20.6927Q5.55322 21.2405 5.64453 21.4896Z" />
    </g>
  </g>
</svg>