<?xml version="1.0" encoding="utf-8"?>
<svg width="115px" height="61px" viewbox="0 0 115 61" version="1.1" xmlns:xlink="http://www.w3.org/1999/xlink" xmlns="http://www.w3.org/2000/svg">
  <g id="Group-5" transform="translate(7.0004883 1)">
    <path d="M83.958 47.318L83.6825 7.01083L0 0L0 52.411C0 55.789 2.847 58.527 6.36 58.527L90.319 53.434" id="Stroke-1" fill="none" fill-rule="evenodd" stroke="#ffffff" stroke-width="2" />
    <path d="M0 10.346C0 13.724 2.848 16.462 6.361 16.462C9.875 16.462 12.722 13.724 12.722 10.346L12.722 0L0 0" transform="translate(83.95801 36.971924)" id="Stroke-3" fill="none" fill-rule="evenodd" stroke="#ffffff" stroke-width="2" />
  </g>
  <path d="M0 0L33 0L33 34L0 34L0 0Z" transform="translate(1 13.937012)" id="Rectangle-Copy-2" fill="#E6007E" fill-rule="evenodd" stroke="none" />
  <g id="CREATIE" fill="#ffffff" transform="translate(0 6.336914)">
    <path d="M9.66211 30.6536Q8.34228 31.3509 6.375 31.3509Q3.83496 31.3509 2.30762 29.7156Q0.780273 28.0804 0.780273 25.4241Q0.780273 22.5687 2.49853 20.8089Q4.2168 19.0491 6.85644 19.0491Q8.5498 19.0491 9.66211 19.5389L9.66211 21.0247Q8.38379 20.3108 6.83984 20.3108Q4.78955 20.3108 3.51538 21.6805Q2.24121 23.0501 2.24121 25.3411Q2.24121 27.5159 3.43237 28.8067Q4.62353 30.0975 6.55762 30.0975Q8.35058 30.0975 9.66211 29.3006L9.66211 30.6536ZM22.2891 31.1517L20.629 31.1517L18.6368 27.8147Q18.3629 27.3499 18.1055 27.022Q17.8482 26.6941 17.5784 26.4866Q17.3087 26.2791 16.9974 26.1836Q16.6861 26.0882 16.296 26.0882L15.1505 26.0882L15.1505 31.1517L13.7559 31.1517L13.7559 19.2483L17.3087 19.2483Q18.0889 19.2483 18.7489 19.4434Q19.4088 19.6385 19.8944 20.0369Q20.38 20.4354 20.6539 21.0289Q20.9278 21.6224 20.9278 22.4192Q20.9278 23.0418 20.741 23.5606Q20.5543 24.0794 20.2098 24.4861Q19.8653 24.8929 19.3797 25.1792Q18.8941 25.4656 18.2882 25.6233L18.2882 25.6565Q18.587 25.7894 18.807 25.9595Q19.0269 26.1297 19.2262 26.3621Q19.4254 26.5945 19.6204 26.8892Q19.8155 27.1839 20.0562 27.574L22.2891 31.1517ZM25.5944 31.1517L31.903 31.1517L31.903 29.8899L26.9889 29.8899L26.9889 25.7229L31.2887 25.7229L31.2887 24.4695L26.9889 24.4695L26.9889 20.5101L31.6374 20.5101L31.6374 19.2483L25.5944 19.2483L25.5944 31.1517ZM45.0779 31.1517L43.5339 31.1517L42.2722 27.8147L37.2253 27.8147L36.0383 31.1517L34.4861 31.1517L39.0515 19.2483L40.4958 19.2483L45.0779 31.1517ZM52.1019 20.5101L55.5384 20.5101L55.5384 19.2483L47.2791 19.2483L47.2791 20.5101L50.7073 20.5101L50.7073 31.1517L52.1019 31.1517L52.1019 20.5101ZM60.4706 31.1517L59.0761 31.1517L59.0761 19.2483L60.4706 19.2483L60.4706 31.1517ZM65.27 31.1517L71.5786 31.1517L71.5786 29.8899L66.6645 29.8899L66.6645 25.7229L70.9643 25.7229L70.9643 24.4695L66.6645 24.4695L66.6645 20.5101L71.313 20.5101L71.313 19.2483L65.27 19.2483L65.27 31.1517ZM15.1505 20.5101L15.1505 24.8265L17.043 24.8265Q17.566 24.8265 18.0101 24.6688Q18.4542 24.511 18.7779 24.2164Q19.1016 23.9217 19.2843 23.4942Q19.4669 23.0667 19.4669 22.5354Q19.4669 21.5809 18.8485 21.0455Q18.2301 20.5101 17.0596 20.5101L15.1505 20.5101ZM41.8157 26.5613L39.948 21.4896Q39.8567 21.2405 39.7654 20.6927L39.7322 20.6927Q39.6492 21.199 39.5412 21.4896L37.6902 26.5613L41.8157 26.5613Z" />
  </g>
</svg>