<?xml version="1.0" encoding="utf-8"?>
<!-- Generator: Adobe Illustrator 25.2.1, SVG Export Plug-In . SVG Version: 6.00 Build 0)  -->
<svg version="1.1" id="Laag_1" xmlns="http://www.w3.org/2000/svg" xmlns:xlink="http://www.w3.org/1999/xlink" x="0px" y="0px"
	 viewBox="0 0 150 80" style="enable-background:new 0 0 150 80;" xml:space="preserve">
<style type="text/css">
	.st0{fill:none;}
	.st1{fill:#E6007E;}
</style>
<g id="Page-1">
	<g id="Group-12" transform="translate(0.000000, 1.000000)">
		<g>
			<path class="st0" d="M91.5,57c0,2.7,2.1,4.8,4.9,5.1c2.7-0.2,4.9-2.4,4.9-5.1v-9.2h-9.7V57H91.5z"/>
			<path class="st1" d="M103.2,45.7H91.5l-0.2-29.6L6.3,9l-1-0.1v14h3V11.2l80.1,6.7L88.7,57l0,0c0,2.2,1,4.1,2.6,5.4l-78,4.8
				c-2.8-0.2-5-2.4-5-5.1v-5.5h-3v5.5c0,3.9,3.3,7,7.3,7l0,0h0.5c0.2,0,0.4,0,0.6,0l0,0L97.1,64l0,0c4,0,7.2-3.2,7.2-7V45.7H103.2z
				 M101.2,57c0,2.7-2.1,4.8-4.9,5.1c-2.7-0.2-4.9-2.4-4.9-5.1l-0.1-9.2h9.7L101.2,57L101.2,57z"/>
		</g>
		<path id="CREATIE" class="st1" d="M6.4,45.8c1,0,1.9-0.2,2.7-0.6c0.8-0.4,1.4-0.9,2-1.6l0,0l-1.7-1.2c-0.3,0.4-0.7,0.8-1.2,1
			s-1.1,0.4-1.7,0.4s-1.2-0.1-1.7-0.3S3.9,43,3.5,42.6s-0.6-0.9-0.8-1.4c-0.2-0.5-0.3-1.1-0.3-1.8c0-0.6,0.1-1.2,0.3-1.7
			c0.2-0.5,0.5-1,0.8-1.4c0.4-0.4,0.8-0.7,1.3-0.9s1.1-0.3,1.7-0.3c0.5,0,1,0.1,1.5,0.3s0.9,0.5,1.2,0.9l0,0l1.6-1.3
			c-0.2-0.3-0.5-0.6-0.9-0.8c-0.3-0.2-0.7-0.4-1.1-0.6c-0.4-0.2-0.8-0.3-1.2-0.3c-0.4-0.1-0.8-0.1-1.2-0.1c-0.9,0-1.8,0.1-2.6,0.4
			s-1.5,0.7-2.1,1.3c-0.6,0.5-1,1.2-1.4,2s-0.2,1.7-0.2,2.5c0,0.9,0.2,1.8,0.5,2.6s0.8,1.4,1.3,2c0.6,0.6,1.2,1,2,1.3
			C4.6,45.6,5.5,45.8,6.4,45.8z M16.1,45.5v-5.1h1.6l2.8,5.1h2.6l-3.2-5.3c0.8-0.2,1.5-0.6,2-1.1s0.7-1.3,0.7-2.1
			c0-0.6-0.1-1.2-0.4-1.6c-0.2-0.4-0.6-0.8-1-1.1s-0.9-0.5-1.4-0.6s-1.1-0.2-1.6-0.2l0,0H14v11.9L16.1,45.5L16.1,45.5z M17.9,38.7
			h-1.8v-3.4H18c0.3,0,0.6,0,0.8,0.1c0.3,0,0.5,0.1,0.8,0.3c0.2,0.1,0.4,0.3,0.6,0.5c0.1,0.2,0.2,0.5,0.2,0.8c0,0.4-0.1,0.7-0.2,0.9
			c-0.2,0.2-0.4,0.4-0.6,0.5c-0.2,0.1-0.5,0.2-0.8,0.3S18.2,38.7,17.9,38.7L17.9,38.7z M34.5,45.5v-1.9h-6.1v-3.4h5.5v-1.8h-5.5
			v-3.1h5.8v-1.9h-7.9v11.9L34.5,45.5L34.5,45.5z M39.2,45.5l1.1-2.8h5.2l1.1,2.8h2.4l-5.2-11.9h-1.9l-5.2,11.9H39.2z M44.7,40.9H41
			l1.9-4.9L44.7,40.9z M55.2,45.5V35.4h3.7v-1.9h-9.4v1.9h3.7v10.1H55.2z M64.2,45.5V33.6h-2.1v11.9H64.2z M76.7,45.5v-1.9h-6.1
			v-3.4h5.5v-1.8h-5.5v-3.1h5.8v-1.9h-7.9v11.9L76.7,45.5L76.7,45.5z"/>
	</g>
</g>
</svg>
