<?xml version="1.0" encoding="utf-8"?>
<svg width="21px" height="18px" viewBox="0 0 21 18" version="1.1" xmlns:xlink="http://www.w3.org/1999/xlink" xmlns="http://www.w3.org/2000/svg">
  <g id="Group-5" transform="translate(0.6000061 0.60009766)">
    <path d="M18.264 6.601L9.013 0L0 6.601" transform="translate(0.3539 0.7397)" id="Stroke-1" fill="none" fill-rule="evenodd" stroke="#303030" stroke-width="1.2" />
    <path d="M11.739 7.306L8.957 7.306L8.957 3.429C8.957 2.027 7.816 0.886 6.414 0.886C5.01 0.886 3.87 2.027 3.87 3.429L3.87 7.306L1.199 7.306L1.199 0.044L0 0.922L0 8.506L5.069 8.506L5.069 3.429C5.069 2.688 5.673 2.086 6.414 2.086C7.155 2.086 7.758 2.688 7.758 3.429L7.758 8.506L12.938 8.506L12.938 0.856L11.739 0L11.739 7.306Z" transform="translate(2.9462 6.834)" id="Fill-3" fill="#303030" fill-rule="evenodd" stroke="none" />
  </g>
</svg>