<?xml version="1.0" encoding="utf-8"?>
<svg width="183px" height="96px" viewBox="0 0 183 96" version="1.1" xmlns:xlink="http://www.w3.org/1999/xlink" xmlns="http://www.w3.org/2000/svg">
  <defs>
    <path d="M0 95.3583L182.228 95.3583L182.228 0L0 0L0 95.3583Z" id="path_1" />
    <clipPath id="mask_1">
      <use xlink:href="#path_1" />
    </clipPath>
  </defs>
  <g id="Group-57-Copy-2">
    <path d="M0 29.7L80.1 29.7L80.1 0L0 0L0 29.7Z" transform="translate(0 0.970562)" id="Fill-1" fill="#E6007E" fill-rule="evenodd" stroke="none" />
    <path d="M0 29.7L182.7 29.7L182.7 0L0 0L0 29.7Z" transform="translate(0 33.370564)" id="Fill-2" fill="#E6007E" fill-rule="evenodd" stroke="none" />
    <g id="Group-56">
      <path d="M0 17.619C0.0607126 17.3167 0.108496 17.0331 0.145598 16.7667C0.179889 16.5004 0.20884 16.2405 0.229921 15.9875C0.253812 15.7344 0.267023 15.4842 0.277704 15.2351C0.285574 14.9861 0.290915 14.7251 0.290915 14.4494L0.290915 4.00855C0.290915 3.75946 0.283044 3.4784 0.269553 3.1628C0.256623 2.8472 0.238072 2.52112 0.21137 2.18401C0.18523 1.84718 0.153187 1.50214 0.118896 1.15201C0.0820745 0.801596 0.0421615 0.470145 0 0.15964L5.06501 0C4.97506 0.656675 4.91688 1.28108 4.88512 1.87096C4.85589 2.46112 4.84014 3.03627 4.84014 3.59586L4.84014 14.3164L7.52471 14.3164C7.8502 14.3164 8.14898 14.3096 8.42416 14.2963C8.69652 14.283 8.96635 14.2631 9.23085 14.2363C9.49534 14.2097 9.76236 14.1765 10.0297 14.1363C10.2995 14.0964 10.5929 14.05 10.9103 13.9968L10.6722 17.619L0 17.619Z" transform="translate(5.5581055 4.975727)" id="Fill-3" fill="#FFFFFF" fill-rule="evenodd" stroke="none" />
      <path d="M7.64389 3.10958C7.28945 2.66095 6.80037 2.43706 6.17582 2.43706C5.90093 2.43706 5.64431 2.49706 5.40117 2.61679C5.16029 2.73681 4.94611 2.92051 4.76088 3.16959C4.57565 3.41867 4.43033 3.72493 4.32437 4.08837C4.21868 4.45209 4.16584 4.88345 4.16584 5.38021L8.17287 5.38021C8.17287 4.31481 7.99551 3.55822 7.64389 3.10958M12.0742 5.46003C12.0742 5.78893 12.0661 6.14868 12.0531 6.53873C12.0399 6.92905 12.0107 7.32447 11.9683 7.72414L4.32437 7.72414C4.37749 8.19428 4.50707 8.61914 4.71338 8.99588C4.92222 9.37262 5.19205 9.69247 5.52794 9.95485C5.8613 10.2172 6.25256 10.4182 6.69694 10.5609C7.14413 10.7032 7.62534 10.7737 8.14645 10.7737C8.79715 10.7737 9.43716 10.7112 10.064 10.5872C10.6882 10.4635 11.2886 10.2982 11.8626 10.0947L11.6113 12.9846C11.2147 13.1176 10.8285 13.2348 10.453 13.3373C10.08 13.44 9.69378 13.5238 9.2969 13.5903C8.9003 13.6571 8.47981 13.7064 8.03262 13.737C7.58823 13.7675 7.10169 13.7834 6.5727 13.7834C5.57572 13.7834 4.67375 13.6331 3.86678 13.3308C3.06008 13.0285 2.36976 12.5983 1.79861 12.0389C1.22465 11.4796 0.782799 10.8032 0.468274 10.0081C0.155998 9.21298 0 8.32335 0 7.33778C0 6.13 0.161338 5.06998 0.489355 4.15488C0.814842 3.24007 1.26709 2.47442 1.84358 1.85765C2.42288 1.24117 3.10534 0.776405 3.89348 0.466183C4.68415 0.155677 5.54115 0 6.46702 0C7.35578 0 8.14898 0.123976 8.84746 0.372776C9.54284 0.62186 10.1303 0.981333 10.6062 1.45148C11.0823 1.92162 11.4446 2.49423 11.6959 3.16959C11.9472 3.84466 12.0742 4.60776 12.0742 5.46003" transform="translate(17.983887 9.224018)" id="Fill-5" fill="#FFFFFF" fill-rule="evenodd" stroke="none" />
      <path d="M7.64389 3.10958C7.28945 2.66095 6.80009 2.43706 6.17582 2.43706C5.90093 2.43706 5.64431 2.49706 5.40117 2.61679C5.16029 2.73681 4.94611 2.92051 4.76088 3.16959C4.57565 3.41867 4.43033 3.72493 4.32437 4.08837C4.21868 4.45209 4.16584 4.88345 4.16584 5.38021L8.17287 5.38021C8.17287 4.31481 7.99551 3.55822 7.64389 3.10958M12.0742 5.46003C12.0742 5.78893 12.0661 6.14868 12.0531 6.53873C12.0396 6.92905 12.0107 7.32447 11.9683 7.72414L4.32437 7.72414C4.37721 8.19428 4.50707 8.61914 4.71338 8.99588C4.92222 9.37262 5.19205 9.69247 5.52794 9.95485C5.8613 10.2172 6.25256 10.4182 6.69694 10.5609C7.14413 10.7032 7.62534 10.7737 8.14645 10.7737C8.79715 10.7737 9.43716 10.7112 10.064 10.5872C10.6882 10.4635 11.2886 10.2982 11.8626 10.0947L11.6113 12.9846C11.2147 13.1176 10.8285 13.2348 10.4527 13.3373C10.08 13.44 9.6935 13.5238 9.2969 13.5903C8.9003 13.6571 8.47981 13.7064 8.03262 13.737C7.58823 13.7675 7.10169 13.7834 6.5727 13.7834C5.57544 13.7834 4.67375 13.6331 3.86678 13.3308C3.06008 13.0285 2.36976 12.5983 1.79861 12.0389C1.22465 11.4796 0.782799 10.8032 0.468274 10.0081C0.155998 9.21298 0 8.32335 0 7.33778C0 6.13 0.161338 5.06998 0.489355 4.15488C0.814561 3.24007 1.26709 2.47442 1.84358 1.85765C2.42288 1.24117 3.10534 0.776405 3.89348 0.466183C4.68415 0.155677 5.54115 0 6.46702 0C7.3555 0 8.14898 0.123976 8.84746 0.372776C9.54284 0.62186 10.13 0.981333 10.6062 1.45148C11.0823 1.92162 11.4446 2.49423 11.6959 3.16959C11.9472 3.84466 12.0742 4.60776 12.0742 5.46003" transform="translate(32.10791 9.224018)" id="Fill-7" fill="#FFFFFF" fill-rule="evenodd" stroke="none" />
      <path d="M8.45058 13.2776C8.49274 12.7808 8.52478 12.3121 8.54333 11.8725C8.55907 11.4332 8.56947 11.0177 8.56947 10.6274L8.56947 6.01961C8.56947 5.1232 8.37384 4.47756 7.98764 4.08186C7.59891 3.68644 7.08848 3.48915 6.45381 3.48915C6.09909 3.48915 5.78456 3.51604 5.50686 3.56925C5.22916 3.62247 4.94077 3.70229 4.64199 3.80871L4.64199 10.1748C4.64199 10.5569 4.65773 11.0242 4.68668 11.5796C4.71872 12.1349 4.74767 12.701 4.77409 13.2776L0.19844 13.2776C0.267023 12.8074 0.317336 12.3412 0.343757 11.8793C0.370178 11.4171 0.383389 10.9908 0.383389 10.6008L0.383389 3.80871C0.383389 3.55963 0.372989 3.29215 0.357249 3.00316C0.338698 2.71416 0.311995 2.42375 0.277704 2.1308C0.240883 1.83784 0.20097 1.54771 0.150657 1.25872C0.103155 0.969728 0.0528425 0.701963 0 0.452879L4.3907 0.10671L4.46997 1.41185C5.02537 0.941423 5.60467 0.588743 6.20786 0.352963C6.8133 0.117183 7.49829 0 8.26535 0C8.97956 0 9.61705 0.097369 10.1831 0.292956C10.7464 0.488827 11.2251 0.785746 11.6166 1.18541C12.0107 1.58479 12.3123 2.08692 12.5237 2.6901C12.7353 3.29356 12.8413 4.00458 12.8413 4.82118L12.8413 10.1748C12.8413 10.6274 12.8542 11.1043 12.8809 11.6062C12.9073 12.1083 12.9495 12.6651 13.013 13.2776L8.45058 13.2776Z" transform="translate(46.625977 9.3171425)" id="Fill-9" fill="#FFFFFF" fill-rule="evenodd" stroke="none" />
      <path d="M7.64389 3.10958C7.28945 2.66095 6.80009 2.43706 6.17582 2.43706C5.90093 2.43706 5.64431 2.49706 5.40089 2.61679C5.16029 2.73681 4.94583 2.92051 4.76088 3.16959C4.57565 3.41867 4.43033 3.72493 4.32437 4.08837C4.21868 4.45209 4.16556 4.88345 4.16556 5.38021L8.17287 5.38021C8.17287 4.31481 7.99551 3.55822 7.64389 3.10958M12.0742 5.46003C12.0742 5.78893 12.0661 6.14868 12.0529 6.53873C12.0396 6.92905 12.0107 7.32447 11.9683 7.72414L4.32437 7.72414C4.37721 8.19428 4.50679 8.61914 4.71338 8.99588C4.92222 9.37262 5.19205 9.69247 5.52794 9.95485C5.86102 10.2172 6.25256 10.4182 6.69694 10.5609C7.14385 10.7032 7.62534 10.7737 8.14645 10.7737C8.79715 10.7737 9.43716 10.7112 10.064 10.5872C10.6882 10.4635 11.2886 10.2982 11.8626 10.0947L11.6113 12.9846C11.2144 13.1176 10.8285 13.2348 10.4527 13.3373C10.08 13.44 9.6935 13.5238 9.2969 13.5903C8.9003 13.6571 8.47953 13.7064 8.03262 13.737C7.58823 13.7675 7.10169 13.7834 6.5727 13.7834C5.57544 13.7834 4.67375 13.6331 3.86678 13.3308C3.06008 13.0285 2.36976 12.5983 1.79861 12.0389C1.22465 11.4796 0.782799 10.8032 0.468274 10.0081C0.155998 9.21298 0 8.32335 0 7.33778C0 6.13 0.161338 5.06998 0.489355 4.15488C0.814561 3.24007 1.26709 2.47442 1.84358 1.85765C2.4226 1.24117 3.10506 0.776405 3.8932 0.466183C4.68415 0.155677 5.54115 0 6.46702 0C7.3555 0 8.14898 0.123976 8.84718 0.372776C9.54284 0.62186 10.13 0.981333 10.6062 1.45148C11.0823 1.92162 11.4446 2.49423 11.6959 3.16959C11.9472 3.84466 12.0742 4.60776 12.0742 5.46003" transform="translate(61.90576 9.224018)" id="Fill-11" fill="#FFFFFF" fill-rule="evenodd" stroke="none" />
      <path d="M13.1322 4.40793C12.762 4.2214 12.4101 4.06827 12.0796 3.94854C11.749 3.82881 11.4263 3.73286 11.1087 3.6621C10.7914 3.59162 10.4662 3.53982 10.1354 3.50897C9.80481 3.4784 9.45037 3.46255 9.07232 3.46255C8.50623 3.46255 7.96937 3.57973 7.45866 3.81522C6.94569 4.051 6.49597 4.40397 6.1019 4.87411C5.71064 5.34426 5.39836 5.92876 5.16282 6.62534C4.93037 7.32193 4.814 8.13286 4.814 9.0556C4.814 10.0052 4.92503 10.8337 5.14989 11.5394C5.37447 12.2453 5.68394 12.8287 6.07548 13.2906C6.46955 13.7528 6.92995 14.0964 7.45866 14.3229C7.98793 14.5493 8.55907 14.6625 9.178 14.6625C9.54846 14.6625 9.89222 14.6492 10.2096 14.6223C10.5269 14.5957 10.8364 14.5558 11.1405 14.5026C11.4449 14.4494 11.7515 14.3789 12.061 14.2895C12.3677 14.2003 12.7092 14.0899 13.0794 13.9566L13.2115 17.3393C12.7963 17.499 12.3944 17.6363 12.0082 17.752C11.6194 17.8681 11.22 17.9626 10.8099 18.0385C10.3998 18.1143 9.96896 18.1675 9.51389 18.1981C9.06164 18.229 8.55907 18.2448 8.01435 18.2448C6.85041 18.2448 5.77922 18.0543 4.80051 17.6722C3.82208 17.2901 2.97576 16.7294 2.26154 15.9875C1.54733 15.2459 0.99192 14.3322 0.59504 13.2442C0.19844 12.1561 0 10.9028 0 9.48188C0 8.0437 0.240883 6.74111 0.727427 5.57325C1.21144 4.40538 1.86748 3.40905 2.69778 2.58339C3.52583 1.75774 4.49639 1.12116 5.60748 0.672526C6.7183 0.223609 7.8977 0 9.15158 0C9.55633 0 9.93972 0.0133033 10.302 0.03991C10.6618 0.0665166 11.0188 0.110389 11.3653 0.172943C11.7144 0.235497 12.0635 0.310222 12.4101 0.399383C12.7592 0.488544 13.119 0.599216 13.4894 0.732249L13.1322 4.40793Z" transform="translate(4.9101562 37.49178)" id="Fill-13" fill="#FFFFFF" fill-rule="evenodd" stroke="none" />
      <path d="M9.61424 6.61883C9.61424 5.873 9.54284 5.24972 9.40287 4.74787C9.2598 4.24574 9.07738 3.84466 8.85252 3.54237C8.62766 3.24007 8.37131 3.02722 8.08012 2.90324C7.7892 2.77955 7.48789 2.71671 7.18095 2.71671C6.86362 2.71671 6.54881 2.78351 6.234 2.91654C5.92201 3.04986 5.63897 3.27885 5.38768 3.60237C5.1364 3.9259 4.93543 4.36151 4.77943 4.90751C4.62596 5.45352 4.54923 6.14331 4.54923 6.97859C4.54923 7.7148 4.62343 8.33949 4.77409 8.84954C4.92222 9.3596 5.11785 9.77512 5.35592 10.0947C5.59399 10.4142 5.86383 10.6472 6.16795 10.7938C6.47208 10.9404 6.77367 11.0135 7.07527 11.0135C7.38192 11.0135 7.68605 10.9509 7.98764 10.8272C8.28643 10.7032 8.55907 10.4782 8.79967 10.1547C9.04309 9.83116 9.23872 9.38224 9.38937 8.80963C9.5375 8.23674 9.61424 7.50704 9.61424 6.61883M14.2034 6.4323C14.2034 7.63102 13.9996 8.68707 13.5948 9.60189C13.1876 10.5167 12.6479 11.2826 11.9736 11.8991C11.299 12.5156 10.5216 12.9818 9.64066 13.2977C8.75723 13.613 7.84205 13.7704 6.89004 13.7704C5.80564 13.7704 4.8348 13.6144 3.98061 13.3042C3.12361 12.994 2.40433 12.5518 1.81688 11.9789C1.23252 11.4066 0.782799 10.714 0.467993 9.90164C0.155998 9.08929 0 8.17702 0 7.16483C0 6.09009 0.190289 5.11131 0.573959 4.22848C0.957348 3.34536 1.48381 2.59047 2.15558 1.96436C2.82482 1.33854 3.61296 0.855093 4.52281 0.512886C5.43013 0.170396 6.40855 0 7.45866 0C8.49808 0 9.43435 0.15596 10.2675 0.466183C11.1009 0.776405 11.8097 1.21598 12.3916 1.78463C12.9734 2.35327 13.4203 3.02976 13.7323 3.81551C14.0471 4.60125 14.2034 5.47361 14.2034 6.4323" transform="translate(19.666016 41.992947)" id="Fill-15" fill="#FFFFFF" fill-rule="evenodd" stroke="none" />
      <path d="M16.3061 13.2776C16.3325 13.0112 16.3564 12.7647 16.3775 12.5385C16.4014 12.3121 16.4146 12.095 16.425 11.8858C16.4332 11.6766 16.441 11.4703 16.4436 11.2665C16.4489 11.0627 16.4517 10.8496 16.4517 10.6274L16.4517 6.04622C16.4517 5.15773 16.2715 4.51068 15.9146 4.10195C15.5576 3.69295 15.0657 3.48915 14.4415 3.48915C14.087 3.48915 13.7565 3.51321 13.4417 3.56246C13.1297 3.61171 12.8306 3.68502 12.5504 3.78211C12.5928 4.00458 12.6271 4.25905 12.6482 4.54804C12.6721 4.83703 12.6825 5.10989 12.6825 5.3669L12.6825 10.3876C12.6825 10.8405 12.6932 11.3104 12.7142 11.7992C12.7381 12.288 12.7699 12.7808 12.8149 13.2776L8.31847 13.2776C8.36063 12.7981 8.38986 12.3387 8.40308 11.8991C8.41629 11.4598 8.42416 11.044 8.42416 10.654L8.42416 6.04622C8.42416 5.13112 8.25495 4.47728 7.92159 4.08186C7.5857 3.68615 7.05138 3.48915 6.32142 3.48915C6.01195 3.48915 5.71317 3.51831 5.42226 3.57576C5.13134 3.63294 4.86938 3.71163 4.64199 3.80871L4.64199 10.3344C4.64199 10.7338 4.65267 11.1932 4.67375 11.7126C4.69764 12.232 4.72912 12.7542 4.77409 13.2776L0.19844 13.2776C0.251283 12.7981 0.293725 12.3427 0.330828 11.9124C0.365119 11.4822 0.38367 11.0709 0.38367 10.6806L0.38367 3.7555C0.38367 3.24941 0.346568 2.70341 0.277985 2.11749C0.20631 1.5313 0.113836 0.985578 0 0.479486L4.36428 0.106427L4.44355 1.41157C5.01497 0.941423 5.62041 0.58846 6.25537 0.352963C6.89004 0.117183 7.5857 0 8.34489 0C9.2865 0 10.0429 0.142374 10.6115 0.426273C11.1801 0.709888 11.6273 1.11465 11.9553 1.63801C12.5372 1.13192 13.1957 0.732532 13.931 0.439576C14.6688 0.146337 15.5073 0 16.4517 0C17.1024 0 17.6893 0.097369 18.2104 0.292956C18.729 0.488827 19.1759 0.778952 19.5461 1.16531C19.9165 1.55139 20.1996 2.03484 20.3978 2.61679C20.5962 3.19903 20.6968 3.87155 20.6968 4.63437L20.6968 10.3344C20.6968 10.7338 20.7126 11.1799 20.7418 11.6727C20.7736 12.1655 20.8317 12.7007 20.9214 13.2776L16.3061 13.2776Z" transform="translate(36.024902 42.046246)" id="Fill-17" fill="#FFFFFF" fill-rule="evenodd" stroke="none" />
      <path d="M16.3061 13.2776C16.3325 13.0112 16.3564 12.7647 16.3775 12.5385C16.4014 12.3121 16.4146 12.095 16.4253 11.8858C16.4332 11.6766 16.441 11.4703 16.4436 11.2665C16.4489 11.0627 16.4517 10.8496 16.4517 10.6274L16.4517 6.04622C16.4517 5.15773 16.2718 4.51068 15.9146 4.10195C15.5576 3.69295 15.0657 3.48915 14.4415 3.48915C14.087 3.48915 13.7565 3.51321 13.4417 3.56246C13.1297 3.61171 12.8306 3.68502 12.5504 3.78211C12.5928 4.00458 12.6271 4.25905 12.6482 4.54804C12.6721 4.83703 12.6825 5.10989 12.6825 5.3669L12.6825 10.3876C12.6825 10.8405 12.6932 11.3104 12.7142 11.7992C12.7381 12.288 12.7699 12.7808 12.8149 13.2776L8.31847 13.2776C8.36063 12.7981 8.38986 12.3387 8.40308 11.8991C8.41629 11.4598 8.42416 11.044 8.42416 10.654L8.42416 6.04622C8.42416 5.13112 8.25495 4.47728 7.92159 4.08186C7.58599 3.68615 7.05166 3.48915 6.3217 3.48915C6.01195 3.48915 5.71317 3.51831 5.42226 3.57576C5.13134 3.63294 4.86966 3.71163 4.64199 3.80871L4.64199 10.3344C4.64199 10.7338 4.65267 11.1932 4.67375 11.7126C4.69764 12.232 4.72912 12.7542 4.77437 13.2776L0.19844 13.2776C0.251283 12.7981 0.293725 12.3427 0.330828 11.9124C0.365119 11.4822 0.38367 11.0709 0.38367 10.6806L0.38367 3.7555C0.38367 3.24941 0.346568 2.70341 0.277985 2.11749C0.206592 1.5313 0.113836 0.985578 0 0.479486L4.36428 0.106427L4.44355 1.41157C5.01497 0.941423 5.6207 0.58846 6.25537 0.352963C6.89004 0.117183 7.58599 0 8.34489 0C9.2865 0 10.0429 0.142374 10.6115 0.426273C11.1804 0.709888 11.6273 1.11465 11.9553 1.63801C12.5372 1.13192 13.1957 0.732532 13.931 0.439576C14.6688 0.146337 15.5073 0 16.4517 0C17.1024 0 17.6893 0.097369 18.2104 0.292956C18.729 0.488827 19.1759 0.778952 19.5461 1.16531C19.9165 1.55139 20.1996 2.03484 20.398 2.61679C20.5962 3.19903 20.6968 3.87155 20.6968 4.63437L20.6968 10.3344C20.6968 10.7338 20.7126 11.1799 20.7418 11.6727C20.7736 12.1655 20.8317 12.7007 20.9214 13.2776L16.3061 13.2776Z" transform="translate(59.588867 42.046246)" id="Fill-19" fill="#FFFFFF" fill-rule="evenodd" stroke="none" />
      <path d="M8.82076 13.2776L8.52984 12.1856C7.97443 12.6291 7.38979 12.9552 6.7762 13.1644C6.16514 13.3735 5.45627 13.4774 4.65491 13.4774C3.9407 13.4774 3.30603 13.3815 2.75062 13.191C2.19521 13.0005 1.72441 12.7089 1.34074 12.3186C0.957348 11.9286 0.663623 11.4264 0.462653 10.8139C0.259153 10.2011 0.158527 9.4782 0.158527 8.6432L0.158527 3.2763C0.158527 2.3612 0.105685 1.33175 0 0.18653L4.60207 0C4.5571 0.496752 4.52 0.968313 4.48824 1.41185C4.45929 1.85539 4.44326 2.27742 4.44326 2.6768L4.44326 7.5512C4.44326 8.58065 4.62849 9.31969 4.99867 9.76861C5.36913 10.2172 5.91133 10.4411 6.62526 10.4411C6.87936 10.4411 7.14638 10.4077 7.42409 10.3409C7.70207 10.2744 7.94239 10.192 8.14617 10.0947L8.14617 3.07647C8.14617 2.61425 8.12762 2.14835 8.09333 1.6782C8.05623 1.20806 8.01407 0.709888 7.96094 0.18653L12.6161 0C12.5447 0.452879 12.4919 0.876321 12.4573 1.27174C12.4205 1.66744 12.4045 2.06824 12.4045 2.47725L12.4045 10.4677L12.6161 12.958L8.82076 13.2776Z" transform="translate(83.24805 42.259243)" id="Fill-21" fill="#FFFFFF" fill-rule="evenodd" stroke="none" />
      <path d="M8.45058 13.2776C8.49555 12.7808 8.52731 12.3121 8.54305 11.8725C8.5616 11.4329 8.56947 11.0177 8.56947 10.6274L8.56947 6.01933C8.56947 5.1232 8.37637 4.47728 7.98764 4.08186C7.60144 3.68615 7.08848 3.48915 6.45381 3.48915C6.1019 3.48915 5.78709 3.51576 5.50939 3.56897C5.23169 3.62247 4.9433 3.70229 4.64199 3.80871L4.64199 10.1745C4.64199 10.5569 4.65773 11.0242 4.68949 11.5796C4.71872 12.1349 4.74767 12.7007 4.77409 13.2776L0.19844 13.2776C0.269834 12.8074 0.317336 12.3412 0.343757 11.8793C0.370178 11.4171 0.383389 10.9908 0.383389 10.6005L0.383389 3.80871C0.383389 3.55963 0.375519 3.29215 0.357249 3.00316C0.341227 2.71416 0.314806 2.42375 0.277704 2.1308C0.243413 1.83784 0.20097 1.54743 0.153468 1.25844C0.103155 0.969445 0.0528425 0.70168 0 0.452596L4.3907 0.106427L4.46997 1.41157C5.02537 0.941423 5.60467 0.58846 6.21039 0.352963C6.8133 0.117183 7.49829 0 8.26535 0C8.97956 0 9.61958 0.097369 10.1831 0.292956C10.7489 0.488827 11.2251 0.785746 11.6192 1.18513C12.0107 1.58479 12.3123 2.08692 12.5237 2.6901C12.7353 3.29356 12.8413 4.00458 12.8413 4.8209L12.8413 10.1745C12.8413 10.6274 12.8542 11.104 12.8809 11.6062C12.9073 12.1083 12.9523 12.6648 13.013 13.2776L8.45058 13.2776Z" transform="translate(98.760254 42.046246)" id="Fill-23" fill="#FFFFFF" fill-rule="evenodd" stroke="none" />
      <path d="M2.51255 0C2.82988 0 3.13148 0.0560438 3.41171 0.166433C3.69476 0.277105 3.93817 0.430235 4.13914 0.625823C4.34292 0.821693 4.50426 1.05493 4.62315 1.32524C4.74233 1.59555 4.80051 1.89105 4.80051 2.2109C4.80051 2.52112 4.73418 2.81266 4.60207 3.08298C4.46969 3.35329 4.29514 3.58907 4.08096 3.7889C3.86396 3.98873 3.61296 4.14441 3.32711 4.25508C3.039 4.36547 2.74247 4.42152 2.433 4.42152C2.1078 4.42152 1.8062 4.3683 1.52878 4.26159C1.25079 4.15517 1.01019 4.006 0.80641 3.81551C0.60544 3.62502 0.446631 3.39207 0.330265 3.11638C0.21671 2.84069 0.158527 2.5398 0.158527 2.2109C0.158527 1.90039 0.22458 1.6114 0.356968 1.34505C0.489074 1.0787 0.663623 0.845752 0.880614 0.645919C1.09479 0.446086 1.34608 0.288994 1.63418 0.173226C1.92004 0.0574591 2.21376 0 2.51255 0M0.113555 17.9787C0.142506 17.5352 0.158527 17.1038 0.158527 16.6869L0.158527 10.1482C0.158527 9.80172 0.155998 9.48471 0.145317 9.19571C0.137447 8.90672 0.126766 8.62593 0.113555 8.34996C0.100344 8.07455 0.0817934 7.7949 0.0607126 7.51129C0.0368211 7.22739 0.01827 6.91179 0 6.56562L4.52253 6.24605C4.48037 6.85857 4.45113 7.39524 4.4382 7.85746C4.42499 8.31968 4.41684 8.76293 4.41684 9.1892L4.41684 16.3673C4.41684 16.8027 4.42724 17.266 4.45113 17.7588C4.4725 18.2516 4.49639 18.7871 4.52253 19.3637L0 19.3637C0.0446912 18.8842 0.0817934 18.422 0.113555 17.9787" transform="translate(114.72266 35.960087)" id="Fill-25" fill="#FFFFFF" fill-rule="evenodd" stroke="none" />
      <path d="M8.34489 13.5173C7.66778 13.6503 6.9693 13.7171 6.25509 13.7171C5.32163 13.7171 4.46997 13.5705 3.70291 13.2776C2.93585 12.9846 2.27729 12.5612 1.72722 12.0058C1.17434 11.4505 0.751038 10.778 0.449723 9.98825C0.150938 9.19854 0 8.31005 0 7.32476C0 6.17925 0.182419 5.15377 0.550349 4.24829C0.914905 3.34282 1.42309 2.57434 2.07097 1.94427C2.71886 1.31448 3.48873 0.832449 4.38536 0.499299C5.27947 0.166433 6.25509 0 7.31334 0C7.8873 0 8.41067 0.0438727 8.88709 0.133033C9.36295 0.222477 9.8762 0.377022 10.4212 0.599216L10.1564 3.78211C9.86552 3.62247 9.59569 3.48915 9.34468 3.38273C9.09312 3.27602 8.84718 3.18969 8.60911 3.12289C8.37131 3.05637 8.13043 3.00967 7.88983 2.98306C7.6467 2.95645 7.39007 2.94315 7.1149 2.94315C6.76299 2.94315 6.42458 3.02042 6.10443 3.1761C5.78175 3.33206 5.49871 3.56925 5.25024 3.88853C5.00401 4.20838 4.80838 4.61456 4.66279 5.10735C4.51747 5.59985 4.44355 6.1886 4.44355 6.87188C4.44355 7.49374 4.52815 8.0437 4.69483 8.52319C4.86404 9.00267 5.08609 9.40489 5.36407 9.72841C5.64178 10.0519 5.96164 10.2971 6.32929 10.4609C6.69441 10.6248 7.07499 10.7072 7.47215 10.7072C7.99299 10.7072 8.49021 10.6446 8.96635 10.521C9.44222 10.397 9.92904 10.2237 10.4212 10.0016L10.236 12.9447C9.65387 13.1935 9.02454 13.384 8.34489 13.5173" transform="translate(121.726074 41.992947)" id="Fill-27" fill="#FFFFFF" fill-rule="evenodd" stroke="none" />
      <path d="M7.36618 7.99049C6.80009 7.99049 6.31074 8.03974 5.89812 8.13711C5.48297 8.23419 5.1364 8.37006 4.8587 8.54328C4.58099 8.71623 4.37468 8.91861 4.23724 9.14901C4.10232 9.37941 4.03374 9.6285 4.03374 9.89485C4.03374 10.3211 4.18945 10.654 4.50173 10.8937C4.81653 11.1335 5.2449 11.2532 5.79243 11.2532C6.32957 11.2532 6.85322 11.1561 7.36618 10.9602L7.36618 7.99049ZM7.85554 13.5705L7.69673 12.6515C7.19445 12.9804 6.65478 13.2348 6.07548 13.4174C5.49871 13.5997 4.90901 13.6903 4.31144 13.6903C3.63151 13.6903 3.02579 13.6065 2.49147 13.4372C1.95995 13.2682 1.5077 13.035 1.13752 12.7381C0.766778 12.4412 0.484014 12.0828 0.290915 11.6662C0.0952851 11.2492 0 10.787 0 10.2809C0 9.65935 0.148128 9.07315 0.441572 8.52319C0.737827 7.97322 1.18783 7.49374 1.79074 7.08473C2.39618 6.67601 3.1579 6.35248 4.07871 6.11274C5.00148 5.87299 6.08588 5.75326 7.33976 5.75326L7.33976 5.20726C7.33976 4.39066 7.17308 3.81268 6.84254 3.47585C6.51199 3.13874 5.98019 2.96976 5.25024 2.96976C4.52562 2.96976 3.82208 3.08298 3.13429 3.30942C2.44649 3.53585 1.69265 3.88485 0.872744 4.35472L1.21678 1.02549C1.92032 0.66177 2.63706 0.399666 3.36449 0.239743C4.09192 0.07982 4.92756 0 5.87198 0C6.82399 0 7.65429 0.0891606 8.36344 0.26635C9.07485 0.443539 9.65921 0.699132 10.1221 1.03228C10.5851 1.36515 10.9316 1.77387 11.1616 2.25732C11.3892 2.74077 11.5056 3.28536 11.5056 3.88853C11.5056 4.06572 11.5028 4.27744 11.4975 4.52115C11.4946 4.76486 11.4871 5.01677 11.4792 5.27378C11.4685 5.53079 11.4603 5.78383 11.4525 6.03263C11.4421 6.28172 11.4342 6.50306 11.4261 6.69865L11.3468 11.067L11.7302 13.2244L7.85554 13.5705Z" transform="translate(133.62598 41.992977)" id="Fill-29" fill="#FFFFFF" fill-rule="evenodd" stroke="none" />
      <path d="M8.55626 15.6215C8.13296 15.844 7.67256 16.0183 7.18067 16.1474C6.68626 16.2768 6.12298 16.3407 5.48803 16.3407C4.09417 16.3407 3.05221 16.0302 2.35908 15.4084C1.66875 14.7865 1.32247 13.8063 1.32247 12.4652C1.32247 12.2521 1.32472 11.9886 1.32753 11.673C1.33287 11.3574 1.33821 11.0228 1.34861 10.6676C1.35676 10.3118 1.36463 9.95089 1.37503 9.58208C1.3829 9.21298 1.39105 8.86539 1.40173 8.53649L1.48099 5.39379L0 5.39379L0 3.35612L1.86438 2.83672L2.56567 0.18653L5.97738 0L5.845 3.04986L8.76791 3.04986L8.52956 5.54013L5.71289 5.54013L5.63363 8.23023C5.61507 8.70038 5.6072 9.1759 5.6072 9.6551L5.6072 11.0137C5.6072 11.7952 5.73397 12.3545 5.99059 12.6917C6.24441 13.0285 6.57523 13.1978 6.98223 13.1978C7.308 13.1978 7.61213 13.1644 7.89489 13.0978C8.1754 13.0313 8.45817 12.9354 8.74121 12.8114L8.55626 15.6215Z" transform="translate(146.89014 39.342693)" id="Fill-31" fill="#FFFFFF" fill-rule="evenodd" stroke="none" />
      <path d="M2.51255 0C2.82988 0 3.12867 0.0560438 3.41171 0.166433C3.69223 0.277105 3.93536 0.430235 4.13914 0.625823C4.34011 0.821693 4.50145 1.05493 4.62062 1.32524C4.73952 1.59555 4.80051 1.89105 4.80051 2.2109C4.80051 2.52112 4.73418 2.81266 4.60207 3.08298C4.46997 3.35329 4.29542 3.58907 4.07815 3.7889C3.86425 3.98873 3.61268 4.14441 3.32458 4.25508C3.039 4.36547 2.74022 4.42152 2.43328 4.42152C2.10527 4.42152 1.80395 4.3683 1.52597 4.26159C1.24826 4.15517 1.00766 4.006 0.806691 3.81551C0.60291 3.62502 0.444383 3.39207 0.330265 3.11638C0.2139 2.84069 0.158527 2.5398 0.158527 2.2109C0.158527 1.90039 0.22458 1.6114 0.356968 1.34505C0.489355 1.0787 0.663904 0.845752 0.878084 0.645919C1.09479 0.446086 1.34636 0.288994 1.63165 0.173226C1.92032 0.0574591 2.21095 0 2.51255 0M0.111025 17.9787C0.142506 17.5352 0.158527 17.1038 0.158527 16.6869L0.158527 10.1482C0.158527 9.80172 0.153187 9.48471 0.145317 9.19571C0.134636 8.90672 0.124236 8.62593 0.111025 8.34996C0.0975337 8.07455 0.0820745 7.7949 0.0581829 7.51129C0.0368211 7.22739 0.0157403 6.91179 0 6.56562L4.52253 6.24605C4.47756 6.85857 4.4486 7.39524 4.43539 7.85746C4.42218 8.31968 4.41684 8.76293 4.41684 9.1892L4.41684 16.3673C4.41684 16.8027 4.42724 17.266 4.4486 17.7588C4.4725 18.2516 4.49639 18.7871 4.52253 19.3637L0 19.3637C0.0421615 18.8842 0.0820745 18.422 0.111025 17.9787" transform="translate(157.68945 35.960087)" id="Fill-33" fill="#FFFFFF" fill-rule="evenodd" stroke="none" />
      <path d="M7.64389 3.10958C7.28945 2.66095 6.80009 2.43706 6.17582 2.43706C5.90093 2.43706 5.64431 2.49706 5.40117 2.61679C5.16029 2.73681 4.94583 2.92051 4.76088 3.16959C4.57565 3.41867 4.43005 3.72493 4.32437 4.08837C4.21868 4.45209 4.16584 4.88345 4.16584 5.38021L8.17287 5.38021C8.17287 4.31481 7.9958 3.5585 7.64389 3.10958M12.0742 5.46031C12.0742 5.78921 12.0661 6.14869 12.0531 6.53901C12.0399 6.92905 12.0107 7.32476 11.9685 7.72414L4.32437 7.72414C4.37749 8.19428 4.50707 8.61914 4.71338 8.99588C4.92222 9.3729 5.19205 9.69247 5.52794 9.95485C5.86102 10.2172 6.25284 10.4182 6.69694 10.5609C7.14413 10.7032 7.62562 10.774 8.14645 10.774C8.79715 10.774 9.43716 10.7112 10.064 10.5875C10.6882 10.4635 11.2886 10.2985 11.8626 10.0947L11.6113 12.9846C11.2144 13.1176 10.8285 13.2348 10.4527 13.3376C10.08 13.44 9.69378 13.5238 9.2969 13.5903C8.9003 13.6571 8.47981 13.7064 8.03262 13.737C7.58851 13.7675 7.10169 13.7837 6.5727 13.7837C5.57572 13.7837 4.67375 13.6331 3.86678 13.3308C3.06008 13.0285 2.36976 12.5983 1.79861 12.0389C1.22465 11.4796 0.78308 10.8032 0.468274 10.0081C0.155998 9.21298 0 8.32335 0 7.33778C0 6.13 0.161338 5.06998 0.489355 4.15517C0.814561 3.24007 1.26709 2.47442 1.84358 1.85794C2.42288 1.24117 3.10534 0.776405 3.8932 0.466183C4.68443 0.155677 5.54143 0 6.46702 0C7.35578 0 8.14898 0.123976 8.84718 0.373059C9.54312 0.62186 10.1303 0.981333 10.6062 1.45176C11.0823 1.92162 11.4446 2.49452 11.6959 3.16959C11.9475 3.84466 12.0742 4.60776 12.0742 5.46031" transform="translate(164.73828 41.953007)" id="Fill-35" fill="#FFFFFF" fill-rule="evenodd" stroke="none" />
      <path d="M0 95.3583L182.228 95.3583L182.228 0L0 0L0 95.3583Z" id="Clip-38" fill="none" fill-rule="evenodd" stroke="none" />
      <g clip-path="url(#mask_1)">
        <path d="M0 29.7111L5.35452 29.7111L5.35452 0L0 0L0 29.7111Z" transform="translate(0.00048828125 65.64711)" id="Fill-37" fill="#E6007E" fill-rule="evenodd" stroke="none" />
        <path d="M0 17.619C0.0607126 17.3167 0.108496 17.0331 0.145598 16.7667C0.182419 16.5004 0.20884 16.2405 0.229921 15.9875C0.253812 15.7344 0.267023 15.4842 0.277704 15.2351C0.288104 14.9861 0.290915 14.7251 0.290915 14.4494L0.290915 4.00855C0.290915 3.75946 0.283044 3.4784 0.272364 3.1628C0.256623 2.8472 0.238072 2.52112 0.21137 2.18401C0.18523 1.84718 0.155998 1.50214 0.118896 1.15201C0.0820745 0.801596 0.0449723 0.470145 0 0.15964L5.06501 0C4.97506 0.656675 4.91688 1.28108 4.88512 1.87096C4.85589 2.46112 4.84014 3.03627 4.84014 3.59586L4.84014 14.3164L7.52471 14.3164C7.85273 14.3164 8.14898 14.3096 8.42416 14.2963C8.69905 14.283 8.96635 14.2631 9.23085 14.2363C9.49534 14.2097 9.76236 14.1765 10.0322 14.1363C10.2995 14.0964 10.5929 14.05 10.9103 13.9968L10.6722 17.619L0 17.619Z" transform="translate(5.5581055 4.975727)" id="Fill-39" fill="#FFFFFF" fill-rule="evenodd" stroke="none" />
        <path d="M7.64389 3.10958C7.29226 2.66095 6.80037 2.43706 6.17582 2.43706C5.90093 2.43706 5.64431 2.49706 5.4037 2.61679C5.16029 2.73681 4.94611 2.92051 4.76088 3.16959C4.57565 3.41867 4.43033 3.72493 4.32437 4.08837C4.21868 4.45209 4.16584 4.88345 4.16584 5.38021L8.17287 5.38021C8.17287 4.31481 7.99551 3.55822 7.64389 3.10958M12.0742 5.46003C12.0742 5.78893 12.0689 6.14868 12.0531 6.53873C12.0425 6.92905 12.0107 7.32447 11.9683 7.72414L4.32437 7.72414C4.37749 8.19428 4.50707 8.61914 4.71591 8.99588C4.92222 9.37262 5.19205 9.69247 5.52794 9.95485C5.86383 10.2172 6.25256 10.4182 6.69975 10.5609C7.14413 10.7032 7.62534 10.7737 8.14645 10.7737C8.79967 10.7737 9.43997 10.7112 10.064 10.5872C10.6882 10.4635 11.2914 10.2982 11.8626 10.0947L11.6113 12.9846C11.2147 13.1176 10.8285 13.2348 10.4555 13.3373C10.08 13.44 9.69378 13.5238 9.2969 13.5903C8.9003 13.6571 8.47981 13.7064 8.03262 13.737C7.58823 13.7675 7.10169 13.7834 6.5727 13.7834C5.57825 13.7834 4.67375 13.6331 3.86959 13.3308C3.06008 13.0285 2.37257 12.5983 1.79861 12.0389C1.22465 11.4796 0.782799 10.8032 0.468274 10.0081C0.155998 9.21298 0 8.32335 0 7.33778C0 6.13 0.161338 5.06998 0.489355 4.15488C0.817372 3.24007 1.26709 2.47442 1.84358 1.85765C2.42288 1.24117 3.10534 0.776405 3.89601 0.466183C4.68415 0.155677 5.54115 0 6.46702 0C7.35578 0 8.14898 0.123976 8.84746 0.372776C9.54565 0.62186 10.1303 0.981333 10.6062 1.45148C11.0823 1.92162 11.4446 2.49423 11.6987 3.16959C11.9472 3.84466 12.0742 4.60776 12.0742 5.46003" transform="translate(17.983887 9.224018)" id="Fill-40" fill="#FFFFFF" fill-rule="evenodd" stroke="none" />
        <path d="M7.64389 3.10958C7.29226 2.66095 6.80009 2.43706 6.17582 2.43706C5.90093 2.43706 5.64431 2.49706 5.4037 2.61679C5.16029 2.73681 4.94611 2.92051 4.76088 3.16959C4.57565 3.41867 4.43033 3.72493 4.32437 4.08837C4.21868 4.45209 4.16584 4.88345 4.16584 5.38021L8.17287 5.38021C8.17287 4.31481 7.99551 3.55822 7.64389 3.10958M12.0742 5.46003C12.0742 5.78893 12.0689 6.14868 12.0531 6.53873C12.0425 6.92905 12.0107 7.32447 11.9683 7.72414L4.32437 7.72414C4.37721 8.19428 4.50707 8.61914 4.71591 8.99588C4.92222 9.37262 5.19205 9.69247 5.52794 9.95485C5.86383 10.2172 6.25256 10.4182 6.69975 10.5609C7.14413 10.7032 7.62534 10.7737 8.14645 10.7737C8.79967 10.7737 9.43969 10.7112 10.064 10.5872C10.6882 10.4635 11.2914 10.2982 11.8626 10.0947L11.6113 12.9846C11.2147 13.1176 10.8285 13.2348 10.4555 13.3373C10.08 13.44 9.6935 13.5238 9.2969 13.5903C8.9003 13.6571 8.47981 13.7064 8.03262 13.737C7.58823 13.7675 7.10169 13.7834 6.5727 13.7834C5.57825 13.7834 4.67375 13.6331 3.86959 13.3308C3.06008 13.0285 2.37257 12.5983 1.79861 12.0389C1.22465 11.4796 0.782799 10.8032 0.468274 10.0081C0.155998 9.21298 0 8.32335 0 7.33778C0 6.13 0.161338 5.06998 0.489355 4.15488C0.817372 3.24007 1.26709 2.47442 1.84358 1.85765C2.42288 1.24117 3.10534 0.776405 3.89601 0.466183C4.68415 0.155677 5.54115 0 6.46702 0C7.3555 0 8.14898 0.123976 8.84746 0.372776C9.54565 0.62186 10.13 0.981333 10.6062 1.45148C11.0823 1.92162 11.4446 2.49423 11.6984 3.16959C11.9472 3.84466 12.0742 4.60776 12.0742 5.46003" transform="translate(32.10791 9.224018)" id="Fill-41" fill="#FFFFFF" fill-rule="evenodd" stroke="none" />
        <path d="M8.45058 13.2776C8.49555 12.7808 8.52731 12.3121 8.54333 11.8725C8.55907 11.4332 8.56947 11.0177 8.56947 10.6274L8.56947 6.01961C8.56947 5.1232 8.37384 4.47756 7.98764 4.08186C7.60144 3.68644 7.08848 3.48915 6.45381 3.48915C6.09909 3.48915 5.78709 3.51604 5.50686 3.56925C5.23169 3.62247 4.94077 3.70229 4.64199 3.80871L4.64199 10.1748C4.64199 10.5569 4.65773 11.0242 4.68668 11.5796C4.71872 12.1349 4.74767 12.701 4.77409 13.2776L0.19844 13.2776C0.269834 12.8074 0.317336 12.3412 0.343757 11.8793C0.370178 11.4171 0.383389 10.9908 0.383389 10.6008L0.383389 3.80871C0.383389 3.55963 0.375519 3.29215 0.357249 3.00316C0.338698 2.71416 0.311995 2.42375 0.277704 2.1308C0.243413 1.83784 0.20097 1.54771 0.153468 1.25872C0.103155 0.969728 0.0528425 0.701963 0 0.452879L4.3907 0.10671L4.46997 1.41185C5.02537 0.941423 5.60467 0.588743 6.21039 0.352963C6.8133 0.117183 7.49829 0 8.26535 0C8.97956 0 9.61705 0.097369 10.1831 0.292956C10.7489 0.488827 11.2251 0.785746 11.6166 1.18541C12.0107 1.58479 12.3123 2.08692 12.5237 2.6901C12.7353 3.29356 12.8413 4.00458 12.8413 4.82118L12.8413 10.1748C12.8413 10.6274 12.8542 11.1043 12.8809 11.6062C12.9073 12.1083 12.9495 12.6651 13.013 13.2776L8.45058 13.2776Z" transform="translate(46.625977 9.3171425)" id="Fill-42" fill="#FFFFFF" fill-rule="evenodd" stroke="none" />
        <path d="M7.64389 3.10958C7.29198 2.66095 6.80009 2.43706 6.17582 2.43706C5.90093 2.43706 5.64431 2.49706 5.40342 2.61679C5.16029 2.73681 4.94583 2.92051 4.76088 3.16959C4.57565 3.41867 4.43033 3.72493 4.32437 4.08837C4.21868 4.45209 4.16556 4.88345 4.16556 5.38021L8.17287 5.38021C8.17287 4.31481 7.99551 3.55822 7.64389 3.10958M12.0742 5.46003C12.0742 5.78893 12.0689 6.14868 12.0529 6.53873C12.0422 6.92905 12.0107 7.32447 11.9683 7.72414L4.32437 7.72414C4.37721 8.19428 4.50679 8.61914 4.71591 8.99588C4.92222 9.37262 5.19205 9.69247 5.52794 9.95485C5.86383 10.2172 6.25256 10.4182 6.69975 10.5609C7.14385 10.7032 7.62534 10.7737 8.14645 10.7737C8.79967 10.7737 9.43969 10.7112 10.064 10.5872C10.6882 10.4635 11.2911 10.2982 11.8626 10.0947L11.6113 12.9846C11.2144 13.1176 10.8285 13.2348 10.4552 13.3373C10.08 13.44 9.6935 13.5238 9.2969 13.5903C8.9003 13.6571 8.47953 13.7064 8.03262 13.737C7.58823 13.7675 7.10169 13.7834 6.5727 13.7834C5.57797 13.7834 4.67375 13.6331 3.86959 13.3308C3.06008 13.0285 2.37257 12.5983 1.79861 12.0389C1.22465 11.4796 0.782799 10.8032 0.468274 10.0081C0.155998 9.21298 0 8.32335 0 7.33778C0 6.13 0.161338 5.06998 0.489355 4.15488C0.817091 3.24007 1.26709 2.47442 1.84358 1.85765C2.4226 1.24117 3.10506 0.776405 3.89601 0.466183C4.68415 0.155677 5.54115 0 6.46702 0C7.3555 0 8.14898 0.123976 8.84718 0.372776C9.54565 0.62186 10.13 0.981333 10.6062 1.45148C11.0823 1.92162 11.4446 2.49423 11.6984 3.16959C11.9472 3.84466 12.0742 4.60776 12.0742 5.46003" transform="translate(61.90576 9.224018)" id="Fill-43" fill="#FFFFFF" fill-rule="evenodd" stroke="none" />
        <path d="M13.1322 4.40793C12.762 4.2214 12.4101 4.06827 12.0821 3.94854C11.749 3.82881 11.4263 3.73286 11.1087 3.6621C10.7914 3.59162 10.4687 3.53982 10.1354 3.50897C9.80762 3.4784 9.45318 3.46255 9.07232 3.46255C8.50623 3.46255 7.9719 3.57973 7.45866 3.81522C6.94569 4.051 6.49597 4.40397 6.10471 4.87411C5.71064 5.34426 5.39836 5.92876 5.16282 6.62534C4.93037 7.32193 4.814 8.13286 4.814 9.0556C4.814 10.0052 4.92503 10.8337 5.15242 11.5394C5.37447 12.2453 5.68394 12.8287 6.07801 13.2906C6.46955 13.7528 6.92995 14.0964 7.45866 14.3229C7.98793 14.5493 8.55907 14.6625 9.178 14.6625C9.54846 14.6625 9.89222 14.6492 10.2096 14.6223C10.5269 14.5957 10.8389 14.5558 11.1405 14.5026C11.4474 14.4494 11.7541 14.3789 12.061 14.2895C12.3677 14.2003 12.7092 14.0899 13.0794 13.9566L13.2115 17.3393C12.7963 17.499 12.3944 17.6363 12.0082 17.752C11.622 17.8681 11.22 17.9626 10.8127 18.0385C10.3998 18.1143 9.96896 18.1675 9.5167 18.1981C9.06164 18.229 8.55907 18.2448 8.01435 18.2448C6.85041 18.2448 5.77922 18.0543 4.80051 17.6722C3.82208 17.2901 2.97576 16.7294 2.26154 15.9875C1.54733 15.2459 0.99192 14.3322 0.59504 13.2442C0.19844 12.1561 0 10.9028 0 9.48188C0 8.0437 0.243413 6.74111 0.727427 5.57325C1.21144 4.40538 1.86748 3.40905 2.69778 2.58339C3.52864 1.75774 4.49639 1.12116 5.60748 0.672526C6.7183 0.223609 7.8977 0 9.15158 0C9.55886 0 9.93972 0.0133033 10.302 0.03991C10.6646 0.0665166 11.0188 0.110389 11.3682 0.172943C11.7144 0.235497 12.0635 0.310222 12.4101 0.399383C12.7592 0.488544 13.119 0.599216 13.4894 0.732249L13.1322 4.40793Z" transform="translate(4.9101562 37.49178)" id="Fill-44" fill="#FFFFFF" fill-rule="evenodd" stroke="none" />
        <path d="M9.61424 6.61883C9.61424 5.873 9.54537 5.24972 9.40287 4.74787C9.2598 4.24574 9.07991 3.84466 8.85252 3.54237C8.63047 3.24007 8.37131 3.02722 8.08012 2.90324C7.7892 2.77955 7.48789 2.71671 7.18095 2.71671C6.86362 2.71671 6.54881 2.78351 6.234 2.91654C5.92201 3.04986 5.64149 3.27885 5.38768 3.60237C5.13921 3.9259 4.93543 4.36151 4.77943 4.90751C4.62596 5.45352 4.54923 6.14331 4.54923 6.97859C4.54923 7.7148 4.62596 8.33949 4.77409 8.84954C4.92222 9.3596 5.11785 9.77512 5.35592 10.0947C5.59399 10.4142 5.86383 10.6472 6.17076 10.7938C6.47208 10.9404 6.77367 11.0135 7.07527 11.0135C7.38192 11.0135 7.68886 10.9509 7.98764 10.8272C8.28643 10.7032 8.55907 10.4782 8.79967 10.1547C9.04309 9.83116 9.23872 9.38224 9.38937 8.80963C9.54031 8.23674 9.61424 7.50704 9.61424 6.61883M14.2034 6.4323C14.2034 7.63102 13.9996 8.68707 13.5948 9.60189C13.1904 10.5167 12.6507 11.2826 11.9736 11.8991C11.3018 12.5156 10.5241 12.9818 9.64066 13.2977C8.75723 13.613 7.84205 13.7704 6.89004 13.7704C5.80564 13.7704 4.83762 13.6144 3.98061 13.3042C3.12361 12.994 2.40433 12.5518 1.81688 11.9789C1.23252 11.4066 0.782799 10.714 0.467993 9.90164C0.155998 9.08929 0 8.17702 0 7.16483C0 6.09009 0.1931 5.11131 0.573959 4.22848C0.959878 3.34536 1.48381 2.59047 2.15558 1.96436C2.82735 1.33854 3.61549 0.855093 4.52281 0.512886C5.43013 0.170396 6.40855 0 7.45866 0C8.49808 0 9.43435 0.15596 10.2703 0.466183C11.1009 0.776405 11.8097 1.21598 12.3916 1.78463C12.9734 2.35327 13.4203 3.02976 13.7351 3.81551C14.0471 4.60125 14.2034 5.47361 14.2034 6.4323" transform="translate(19.666016 41.992947)" id="Fill-45" fill="#FFFFFF" fill-rule="evenodd" stroke="none" />
        <path d="M16.3061 13.2776C16.3325 13.0112 16.3564 12.7647 16.3775 12.5385C16.4014 12.3121 16.4146 12.095 16.425 11.8858C16.4357 11.6766 16.441 11.4703 16.4464 11.2665C16.4489 11.0627 16.4517 10.8496 16.4517 10.6274L16.4517 6.04622C16.4517 5.15773 16.2715 4.51068 15.9174 4.10195C15.5576 3.69295 15.0657 3.48915 14.4415 3.48915C14.087 3.48915 13.7565 3.51321 13.4417 3.56246C13.1297 3.61171 12.8334 3.68502 12.5504 3.78211C12.5953 4.00458 12.6271 4.25905 12.6482 4.54804C12.6721 4.83703 12.6825 5.10989 12.6825 5.3669L12.6825 10.3876C12.6825 10.8405 12.6932 11.3104 12.7168 11.7992C12.7381 12.288 12.7699 12.7808 12.8149 13.2776L8.31847 13.2776C8.36344 12.7981 8.38986 12.3387 8.40589 11.8991C8.41629 11.4598 8.42416 11.044 8.42416 10.654L8.42416 6.04622C8.42416 5.13112 8.25748 4.47728 7.92159 4.08186C7.5857 3.68615 7.05138 3.48915 6.32142 3.48915C6.01477 3.48915 5.71317 3.51831 5.42226 3.57576C5.13134 3.63294 4.87219 3.71163 4.64199 3.80871L4.64199 10.3344C4.64199 10.7338 4.65267 11.1932 4.67628 11.7126C4.69764 12.232 4.72912 12.7542 4.77409 13.2776L0.19844 13.2776C0.251283 12.7981 0.296536 12.3427 0.330828 11.9124C0.365119 11.4822 0.38367 11.0709 0.38367 10.6806L0.38367 3.7555C0.38367 3.24941 0.349098 2.70341 0.277985 2.11749C0.20631 1.5313 0.116366 0.985578 0 0.479486L4.36428 0.106427L4.44355 1.41157C5.01497 0.941423 5.62041 0.58846 6.25537 0.352963C6.89004 0.117183 7.5857 0 8.34489 0C9.28903 0 10.0457 0.142374 10.6115 0.426273C11.1829 0.709888 11.6273 1.11465 11.9553 1.63801C12.5372 1.13192 13.1957 0.732532 13.9335 0.439576C14.6688 0.146337 15.5098 0 16.4517 0C17.1024 0 17.6893 0.097369 18.2104 0.292956C18.7315 0.488827 19.1759 0.778952 19.5461 1.16531C19.9165 1.55139 20.2021 2.03484 20.3978 2.61679C20.5987 3.19903 20.6968 3.87155 20.6968 4.63437L20.6968 10.3344C20.6968 10.7338 20.7126 11.1799 20.7418 11.6727C20.7736 12.1655 20.8317 12.7007 20.9214 13.2776L16.3061 13.2776Z" transform="translate(36.024902 42.046246)" id="Fill-46" fill="#FFFFFF" fill-rule="evenodd" stroke="none" />
        <path d="M16.3061 13.2776C16.3325 13.0112 16.3564 12.7647 16.3803 12.5385C16.4014 12.3121 16.4174 12.095 16.4253 11.8858C16.4332 11.6766 16.441 11.4703 16.4436 11.2665C16.4489 11.0627 16.4517 10.8496 16.4517 10.6274L16.4517 6.04622C16.4517 5.15773 16.2744 4.51068 15.9146 4.10195C15.5604 3.69295 15.0683 3.48915 14.4415 3.48915C14.0898 3.48915 13.7565 3.51321 13.4442 3.56246C13.1297 3.61171 12.8306 3.68502 12.5504 3.78211C12.5928 4.00458 12.6271 4.25905 12.651 4.54804C12.6721 4.83703 12.6825 5.10989 12.6825 5.3669L12.6825 10.3876C12.6825 10.8405 12.6932 11.3104 12.7142 11.7992C12.7381 12.288 12.7724 12.7808 12.8149 13.2776L8.31847 13.2776C8.36063 12.7981 8.3924 12.3387 8.40308 11.8991C8.41882 11.4598 8.42416 11.044 8.42416 10.654L8.42416 6.04622C8.42416 5.13112 8.25495 4.47728 7.92159 4.08186C7.58852 3.68615 7.05419 3.48915 6.3217 3.48915C6.01195 3.48915 5.71317 3.51831 5.42226 3.57576C5.13134 3.63294 4.86966 3.71163 4.64199 3.80871L4.64199 10.3344C4.64199 10.7338 4.65267 11.1932 4.67375 11.7126C4.69764 12.232 4.73193 12.7542 4.77437 13.2776L0.19844 13.2776C0.251283 12.7981 0.293725 12.3427 0.330828 11.9124C0.367649 11.4822 0.38367 11.0709 0.38367 10.6806L0.38367 3.7555C0.38367 3.24941 0.346568 2.70341 0.277985 2.11749C0.209121 1.5313 0.113836 0.985578 0 0.479486L4.36428 0.106427L4.44355 1.41157C5.0175 0.941423 5.6207 0.58846 6.25537 0.352963C6.89004 0.117183 7.58852 0 8.34489 0C9.2865 0 10.0429 0.142374 10.6143 0.426273C11.1804 0.709888 11.6298 1.11465 11.9553 1.63801C12.5372 1.13192 13.1957 0.732532 13.931 0.439576C14.6688 0.146337 15.5073 0 16.4517 0C17.1049 0 17.6921 0.097369 18.2104 0.292956C18.729 0.488827 19.1759 0.778952 19.5461 1.16531C19.9165 1.55139 20.1996 2.03484 20.4006 2.61679C20.5962 3.19903 20.6968 3.87155 20.6968 4.63437L20.6968 10.3344C20.6968 10.7338 20.7126 11.1799 20.7443 11.6727C20.7736 12.1655 20.8343 12.7007 20.9214 13.2776L16.3061 13.2776Z" transform="translate(59.588867 42.046246)" id="Fill-47" fill="#FFFFFF" fill-rule="evenodd" stroke="none" />
        <path d="M8.82076 13.2776L8.52984 12.1856C7.97443 12.6291 7.38979 12.9552 6.7762 13.1644C6.16514 13.3735 5.45908 13.4774 4.65491 13.4774C3.9407 13.4774 3.30603 13.3815 2.75062 13.191C2.19521 13.0005 1.72441 12.7089 1.34355 12.3186C0.957348 11.9286 0.666433 11.4264 0.462653 10.8139C0.259153 10.2011 0.158527 9.4782 0.158527 8.6432L0.158527 3.2763C0.158527 2.3612 0.105685 1.33175 0 0.18653L4.60207 0C4.55963 0.496752 4.52 0.968313 4.49105 1.41185C4.45929 1.85539 4.44326 2.27742 4.44326 2.6768L4.44326 7.5512C4.44326 8.58065 4.62849 9.31969 4.99867 9.76861C5.36913 10.2172 5.91133 10.4411 6.62526 10.4411C6.88189 10.4411 7.14638 10.4077 7.4269 10.3409C7.70207 10.2744 7.9452 10.192 8.14617 10.0947L8.14617 3.07647C8.14617 2.61425 8.13043 2.14835 8.09333 1.6782C8.05623 1.20806 8.01407 0.709888 7.96094 0.18653L12.6161 0C12.5473 0.452879 12.4944 0.876321 12.4573 1.27174C12.4205 1.66744 12.4045 2.06824 12.4045 2.47725L12.4045 10.4677L12.6161 12.958L8.82076 13.2776Z" transform="translate(83.24805 42.259243)" id="Fill-48" fill="#FFFFFF" fill-rule="evenodd" stroke="none" />
        <path d="M8.44805 13.2776C8.49302 12.7808 8.52478 12.3121 8.54333 11.8725C8.55907 11.4329 8.56975 11.0177 8.56975 10.6274L8.56975 6.01933C8.56975 5.1232 8.37384 4.47728 7.98793 4.08186C7.59891 3.68615 7.08848 3.48915 6.45381 3.48915C6.09937 3.48915 5.78456 3.51576 5.50686 3.56897C5.22916 3.62247 4.94077 3.70229 4.63946 3.80871L4.63946 10.1745C4.63946 10.5569 4.6552 11.0242 4.68696 11.5796C4.71872 12.1349 4.74514 12.7007 4.77156 13.2776L0.195911 13.2776C0.267304 12.8074 0.317617 12.3412 0.344038 11.8793C0.370459 11.4171 0.380859 10.9908 0.380859 10.6005L0.380859 3.80871C0.380859 3.55963 0.372989 3.29215 0.354719 3.00316C0.338698 2.71416 0.312276 2.42375 0.275174 2.1308C0.240883 1.83784 0.201251 1.54743 0.150938 1.25844C0.100626 0.969445 0.0531235 0.70168 0 0.452596L4.3907 0.106427L4.46997 1.41157C5.02537 0.941423 5.60214 0.58846 6.20787 0.352963C6.81359 0.117183 7.49576 0 8.26282 0C8.97704 0 9.61705 0.097369 10.1831 0.292956C10.7464 0.488827 11.2251 0.785746 11.6166 1.18513C12.0082 1.58479 12.3098 2.08692 12.5211 2.6901C12.7328 3.29356 12.8388 4.00458 12.8388 4.8209L12.8388 10.1745C12.8388 10.6274 12.8545 11.104 12.8809 11.6062C12.9073 12.1083 12.9498 12.6648 13.0133 13.2776L8.44805 13.2776Z" transform="translate(98.762695 42.046246)" id="Fill-49" fill="#FFFFFF" fill-rule="evenodd" stroke="none" />
        <path d="M2.51255 0C2.82988 0 3.13148 0.0560438 3.41171 0.166433C3.69476 0.277105 3.93817 0.430235 4.14167 0.625823C4.34292 0.821693 4.50426 1.05493 4.62315 1.32524C4.74233 1.59555 4.80276 1.89105 4.80276 2.2109C4.80276 2.52112 4.73418 2.81266 4.60207 3.08298C4.46969 3.35329 4.29514 3.58907 4.08096 3.7889C3.86678 3.98873 3.61296 4.14441 3.32711 4.25508C3.04153 4.36547 2.74247 4.42152 2.433 4.42152C2.1078 4.42152 1.8062 4.3683 1.52878 4.26159C1.25079 4.15517 1.01019 4.006 0.80922 3.81551C0.60544 3.62502 0.446631 3.39207 0.333076 3.11638C0.21671 2.84069 0.158527 2.5398 0.158527 2.2109C0.158527 1.90039 0.227391 1.6114 0.359497 1.34505C0.491885 1.0787 0.666433 0.845752 0.880614 0.645919C1.09479 0.446086 1.34861 0.288994 1.63418 0.173226C1.92004 0.0574591 2.21376 0 2.51255 0M0.113555 17.9787C0.142506 17.5352 0.158527 17.1038 0.158527 16.6869L0.158527 10.1482C0.158527 9.80172 0.155998 9.48471 0.147846 9.19571C0.137447 8.90672 0.126766 8.62593 0.113555 8.34996C0.100344 8.07455 0.0843231 7.7949 0.0607126 7.51129C0.0368211 7.22739 0.01827 6.91179 0 6.56562L4.52253 6.24605C4.48037 6.85857 4.45113 7.39524 4.4382 7.85746C4.42499 8.31968 4.41684 8.76293 4.41684 9.1892L4.41684 16.3673C4.41684 16.8027 4.42724 17.266 4.45113 17.7588C4.47503 18.2516 4.49639 18.7871 4.52253 19.3637L0 19.3637C0.0446912 18.8842 0.0843231 18.422 0.113555 17.9787" transform="translate(114.72266 35.960087)" id="Fill-50" fill="#FFFFFF" fill-rule="evenodd" stroke="none" />
        <path d="M8.34742 13.5173C7.66778 13.6503 6.97211 13.7171 6.2579 13.7171C5.32163 13.7171 4.46997 13.5705 3.70319 13.2776C2.93585 12.9846 2.2801 12.5612 1.72722 12.0058C1.17434 11.4505 0.751319 10.778 0.449723 9.98825C0.150938 9.19854 0 8.31005 0 7.32476C0 6.17925 0.18523 5.15377 0.550349 4.24829C0.915186 3.34282 1.42309 2.57434 2.07097 1.94427C2.71914 1.31448 3.49154 0.832449 4.38536 0.499299C5.27947 0.166433 6.2579 0 7.31587 0C7.8873 0 8.41095 0.0438727 8.88709 0.133033C9.36295 0.222477 9.8762 0.377022 10.4212 0.599216L10.1567 3.78211C9.86552 3.62247 9.59569 3.48915 9.34468 3.38273C9.09312 3.27602 8.84999 3.18969 8.61192 3.12289C8.37412 3.05637 8.13071 3.00967 7.88983 2.98306C7.64923 2.95645 7.39007 2.94315 7.1149 2.94315C6.76299 2.94315 6.42739 3.02042 6.10471 3.1761C5.78175 3.33206 5.49871 3.56925 5.25277 3.88853C5.00401 4.20838 4.80838 4.61456 4.66307 5.10735C4.51747 5.59985 4.44355 6.1886 4.44355 6.87188C4.44355 7.49374 4.52815 8.0437 4.69764 8.52319C4.86404 9.00267 5.08609 9.40489 5.36407 9.72841C5.64178 10.0519 5.96192 10.2971 6.32929 10.4609C6.69694 10.6248 7.0778 10.7072 7.47468 10.7072C7.99299 10.7072 8.49021 10.6446 8.96635 10.521C9.4425 10.397 9.92904 10.2237 10.4212 10.0016L10.236 12.9447C9.65387 13.1935 9.02454 13.384 8.34742 13.5173" transform="translate(121.726074 41.992947)" id="Fill-51" fill="#FFFFFF" fill-rule="evenodd" stroke="none" />
        <path d="M7.36618 7.99049C6.80009 7.99049 6.31355 8.03974 5.89812 8.13711C5.48297 8.23419 5.13921 8.37006 4.8587 8.54328C4.5838 8.71623 4.37468 8.91861 4.23976 9.14901C4.10232 9.37941 4.03374 9.6285 4.03374 9.89485C4.03374 10.3211 4.18945 10.654 4.50426 10.8937C4.81653 11.1335 5.2449 11.2532 5.79243 11.2532C6.32957 11.2532 6.85322 11.1561 7.36618 10.9602L7.36618 7.99049ZM7.85554 13.5705L7.69673 12.6515C7.19445 12.9804 6.65478 13.2348 6.07548 13.4174C5.49871 13.5997 4.91182 13.6903 4.31144 13.6903C3.63151 13.6903 3.02579 13.6065 2.49428 13.4372C1.95995 13.2682 1.5077 13.035 1.13752 12.7381C0.766778 12.4412 0.484014 12.0828 0.290915 11.6662C0.0980958 11.2492 0 10.787 0 10.2809C0 9.65935 0.148128 9.07315 0.441572 8.52319C0.737827 7.97322 1.18783 7.49374 1.79074 7.08473C2.39618 6.67601 3.1579 6.35248 4.08096 6.11274C5.00148 5.87299 6.08588 5.75326 7.33976 5.75326L7.33976 5.20726C7.33976 4.39066 7.17561 3.81268 6.84254 3.47585C6.51452 3.13874 5.98019 2.96976 5.25024 2.96976C4.52562 2.96976 3.82208 3.08298 3.13429 3.30942C2.44649 3.53585 1.69265 3.88485 0.872744 4.35472L1.21678 1.02549C1.92285 0.66177 2.63706 0.399666 3.36702 0.239743C4.09192 0.07982 4.92756 0 5.87198 0C6.82399 0 7.65429 0.0891606 8.36597 0.26635C9.07485 0.443539 9.66202 0.699132 10.1221 1.03228C10.5876 1.36515 10.9316 1.77387 11.1616 2.25732C11.3918 2.74077 11.5056 3.28536 11.5056 3.88853C11.5056 4.06572 11.5028 4.27744 11.4975 4.52115C11.4946 4.76486 11.4871 5.01677 11.4792 5.27378C11.471 5.53079 11.4603 5.78383 11.4525 6.03263C11.4446 6.28172 11.4342 6.50306 11.4261 6.69865L11.3468 11.067L11.7302 13.2244L7.85554 13.5705Z" transform="translate(133.62598 41.992977)" id="Fill-52" fill="#FFFFFF" fill-rule="evenodd" stroke="none" />
        <path d="M8.55626 15.6215C8.13296 15.844 7.67537 16.0183 7.18067 16.1474C6.68626 16.2768 6.12298 16.3407 5.48803 16.3407C4.09417 16.3407 3.05221 16.0302 2.35908 15.4084C1.66875 14.7865 1.32247 13.8063 1.32247 12.4652C1.32247 12.2521 1.32472 11.9886 1.32753 11.673C1.33287 11.3574 1.33821 11.0228 1.34861 10.6676C1.35957 10.3118 1.36463 9.95089 1.37503 9.58208C1.38571 9.21298 1.39105 8.86539 1.40173 8.53649L1.48099 5.39379L0 5.39379L0 3.35612L1.86438 2.83672L2.56567 0.18653L5.97738 0L5.845 3.04986L8.76791 3.04986L8.52956 5.54013L5.71289 5.54013L5.63363 8.23023C5.6176 8.70038 5.6072 9.1759 5.6072 9.6551L5.6072 11.0137C5.6072 11.7952 5.73397 12.3545 5.99059 12.6917C6.24722 13.0285 6.57523 13.1978 6.98223 13.1978C7.31025 13.1978 7.61213 13.1644 7.89489 13.0978C8.17793 13.0313 8.45817 12.9354 8.74121 12.8114L8.55626 15.6215Z" transform="translate(146.89014 39.342693)" id="Fill-53" fill="#FFFFFF" fill-rule="evenodd" stroke="none" />
        <path d="M2.51255 0C2.82988 0 3.12867 0.0560438 3.41171 0.166433C3.69476 0.277105 3.93817 0.430235 4.13914 0.625823C4.34011 0.821693 4.50426 1.05493 4.62062 1.32524C4.74233 1.59555 4.80051 1.89105 4.80051 2.2109C4.80051 2.52112 4.73418 2.81266 4.60207 3.08298C4.46997 3.35329 4.29542 3.58907 4.08096 3.7889C3.86425 3.98873 3.61268 4.14441 3.32458 4.25508C3.039 4.36547 2.74247 4.42152 2.43328 4.42152C2.10808 4.42152 1.8062 4.3683 1.52597 4.26159C1.25107 4.15517 1.00766 4.006 0.806691 3.81551C0.605721 3.62502 0.446631 3.39207 0.330265 3.11638C0.2139 2.84069 0.158527 2.5398 0.158527 2.2109C0.158527 1.90039 0.22458 1.6114 0.356968 1.34505C0.489355 1.0787 0.663904 0.845752 0.880614 0.645919C1.09479 0.446086 1.34636 0.288994 1.63165 0.173226C1.92032 0.0574591 2.21376 0 2.51255 0M0.113555 17.9787C0.142506 17.5352 0.158527 17.1038 0.158527 16.6869L0.158527 10.1482C0.158527 9.80172 0.155717 9.48471 0.145317 9.19571C0.134636 8.90672 0.124236 8.62593 0.113555 8.34996C0.0975337 8.07455 0.0820745 7.7949 0.0607126 7.51129C0.0368211 7.22739 0.01827 6.91179 0 6.56562L4.52253 6.24605C4.47756 6.85857 4.45113 7.39524 4.43539 7.85746C4.42499 8.31968 4.41684 8.76293 4.41684 9.1892L4.41684 16.3673C4.41684 16.8027 4.42724 17.266 4.45113 17.7588C4.4725 18.2516 4.49639 18.7871 4.52253 19.3637L0 19.3637C0.0449723 18.8842 0.0820745 18.422 0.113555 17.9787" transform="translate(157.68945 35.960087)" id="Fill-54" fill="#FFFFFF" fill-rule="evenodd" stroke="none" />
        <path d="M7.64389 3.10958C7.28945 2.66095 6.80291 2.43706 6.17582 2.43706C5.90374 2.43706 5.64431 2.49706 5.40117 2.61679C5.16029 2.73681 4.94583 2.92051 4.76088 3.16959C4.57565 3.41867 4.43005 3.72493 4.32437 4.08837C4.21868 4.45209 4.16584 4.88345 4.16584 5.38021L8.17287 5.38021C8.17287 4.31481 7.99833 3.5585 7.64389 3.10958M12.0742 5.46031C12.0742 5.78921 12.0661 6.14869 12.0557 6.53901C12.0399 6.92905 12.0132 7.32476 11.9685 7.72414L4.32437 7.72414C4.37749 8.19428 4.50707 8.61914 4.71338 8.99588C4.92222 9.3729 5.19458 9.69247 5.52794 9.95485C5.86102 10.2172 6.25284 10.4182 6.69694 10.5609C7.14413 10.7032 7.62787 10.774 8.14645 10.774C8.79715 10.774 9.43716 10.7112 10.064 10.5875C10.6908 10.4635 11.2886 10.2985 11.8626 10.0947L11.6113 12.9846C11.2144 13.1176 10.8285 13.2348 10.4527 13.3376C10.08 13.44 9.69378 13.5238 9.2969 13.5903C8.9003 13.6571 8.47981 13.7064 8.03543 13.737C7.58851 13.7675 7.10169 13.7837 6.5727 13.7837C5.57572 13.7837 4.67628 13.6331 3.86678 13.3308C3.0629 13.0285 2.36976 12.5983 1.79861 12.0389C1.22718 11.4796 0.78308 10.8032 0.470804 10.0081C0.155998 9.21298 0 8.32335 0 7.33778C0 6.13 0.164149 5.06998 0.489355 4.15517C0.814561 3.24007 1.26709 2.47442 1.84611 1.85794C2.42288 1.24117 3.10534 0.776405 3.8932 0.466183C4.68443 0.155677 5.54143 0 6.46702 0C7.35803 0 8.15179 0.123976 8.84718 0.373059C9.54312 0.62186 10.1303 0.981333 10.6062 1.45176C11.0823 1.92162 11.4471 2.49452 11.6959 3.16959C11.9497 3.84466 12.0742 4.60776 12.0742 5.46031" transform="translate(164.73828 41.953007)" id="Fill-55" fill="#FFFFFF" fill-rule="evenodd" stroke="none" />
      </g>
    </g>
  </g>
</svg>