<?xml version="1.0" encoding="utf-8"?>
<!-- Generator: Adobe Illustrator 25.2.1, SVG Export Plug-In . SVG Version: 6.00 Build 0)  -->
<svg version="1.1" id="Laag_1" xmlns="http://www.w3.org/2000/svg" xmlns:xlink="http://www.w3.org/1999/xlink" x="0px" y="0px"
	 viewBox="0 0 150 80" style="enable-background:new 0 0 150 80;" xml:space="preserve">
<style type="text/css">
	.st0{fill:#E6007E;}
</style>
<g id="Page-1">
	<g id="Group-9" transform="translate(0.000000, 1.000000)">
		<g>
			<path class="st0" d="M127.7,74l-6.9-27.6c-2-6.4-7.2-10.8-13.3-11.4l-24.9-2.1C76.6,32.4,70.9,30,66,26c-2.7-2.2-5.7-3.7-8.8-4.2
				c-4.2-0.7-8,0.6-12.9,4.5l-7-7.3V6h12.6v4.9h-10v2h12V4H35.4v14.1L22.9,38.8h2.3l11-18.2l15.4,16l1.4-1.4l-7.2-7.5
				c5.1-4,8.2-4.5,11.2-4c2.7,0.4,5.4,1.7,7.8,3.7c5.2,4.3,11.3,6.8,17.7,7.4l24.9,2.1c5.3,0.5,9.8,4.4,11.6,9.9l6.1,25.1H5.2
				l3.3-5.4H6.2L1.7,74H127.7z"/>
		</g>
		<path id="REALISATIE" class="st0" d="M2.1,58.8v-5.1h1.6l2.8,5.1h2.6l-3.2-5.3c0.8-0.2,1.5-0.6,2-1.1s0.7-1.3,0.7-2.1
			c0-0.6-0.1-1.2-0.4-1.6c-0.2-0.4-0.6-0.8-1-1.1S6.3,47.1,5.8,47s-1.1-0.2-1.6-0.2l0,0H0v12H2.1z M3.9,52H2.1v-3.4H4
			c0.3,0,0.6,0,0.8,0.1c0.3,0,0.5,0.1,0.8,0.3c0.2,0.1,0.4,0.3,0.6,0.5s0.2,0.5,0.2,0.8c0,0.4-0.1,0.7-0.2,0.9
			c-0.2,0.2-0.4,0.4-0.6,0.5S5.1,51.9,4.8,52C4.5,52,4.2,52,3.9,52L3.9,52z M20.6,58.8v-1.9h-6.1v-3.4H20v-1.8h-5.5v-3.1h5.8v-1.9
			h-8v12h8.3V58.8z M25.3,58.8l1.1-2.8h5.2l1.1,2.8h2.4l-5.2-12H28l-5.2,12H25.3z M30.9,54.2h-3.7l1.9-4.9L30.9,54.2z M45.3,58.8
			v-1.9h-5.1V46.8h-2.1v12H45.3z M50.6,58.8v-12h-2.1v12H50.6z M58,59.1c0.6,0,1.2-0.1,1.7-0.2c0.5-0.2,1-0.4,1.4-0.7s0.7-0.7,1-1.2
			s0.4-1,0.4-1.7c0-0.6-0.1-1.1-0.3-1.5s-0.5-0.7-0.9-1c-0.3-0.3-0.7-0.5-1.1-0.6c-0.4-0.2-0.8-0.3-1.2-0.4
			c-0.3-0.1-0.7-0.2-0.9-0.3c-0.3-0.1-0.5-0.2-0.7-0.4c-0.2-0.1-0.4-0.3-0.5-0.5s-0.2-0.4-0.2-0.7s0.1-0.5,0.2-0.8s0.3-0.4,0.5-0.5
			s0.4-0.2,0.7-0.3c0.3-0.1,0.5-0.1,0.7-0.1c0.4,0,0.8,0.1,1.2,0.3c0.4,0.2,0.7,0.4,1,0.7l0,0l1.4-1.5c-0.5-0.4-1-0.8-1.6-1
			s-1.2-0.3-1.9-0.3c-0.5,0-1.1,0.1-1.6,0.2s-1,0.4-1.4,0.6c-0.4,0.3-0.7,0.7-1,1.1c-0.3,0.4-0.4,1-0.4,1.6s0.1,1,0.3,1.4
			s0.4,0.7,0.7,1c0.3,0.3,0.6,0.5,1,0.6c0.4,0.2,0.7,0.3,1.1,0.4l0,0l1.1,0.4c0.3,0.1,0.6,0.2,0.9,0.4s0.4,0.3,0.6,0.5
			c0.1,0.2,0.2,0.5,0.2,0.8s-0.1,0.6-0.2,0.8s-0.3,0.4-0.5,0.6c-0.2,0.1-0.4,0.3-0.7,0.3c-0.3,0.1-0.5,0.1-0.8,0.1
			c-0.5,0-1-0.1-1.5-0.4c-0.5-0.2-0.9-0.6-1.2-1l0,0l-1.6,1.6c0.5,0.6,1.1,1,1.8,1.3C56.6,59,57.2,59.1,58,59.1z M67.3,58.8l1.1-2.8
			h5.2l1.1,2.8h2.4l-5.2-12H70l-5.2,12H67.3z M72.8,54.2h-3.7l1.9-4.9L72.8,54.2z M83.5,58.8V48.7h3.7v-1.9h-9.5v1.9h3.7v10.2h2.1
			C83.5,58.9,83.5,58.8,83.5,58.8z M92.4,58.8v-12h-2.1v12H92.4z M105,58.8v-1.9h-6.1v-3.4h5.5v-1.8h-5.5v-3.1h5.8v-1.9h-8v12h8.3
			C105,58.7,105,58.8,105,58.8z"/>
	</g>
</g>
</svg>
