<?xml version="1.0" encoding="utf-8"?>
<svg width="133px" height="70px" viewbox="0 0 133 70" version="1.1" xmlns:xlink="http://www.w3.org/1999/xlink" xmlns="http://www.w3.org/2000/svg">
  <g id="Group-7" transform="translate(1 1)">
    <g id="Group-6">
      <path d="M48.9398 16.985L32.6044 0L0 53.9761L123 53.9761L116.547 27.6523C114.678 21.6696 109.8 17.4777 104.112 16.9665L79.2028 14.8919C72.9818 14.3323 67.0456 11.8377 62.0673 7.71842C59.6255 5.69804 56.804 4.26612 53.7923 3.77227C50.1482 3.17342 46.6317 4.06446 41.2416 8.42369" transform="translate(7.7700195 14)" id="Stroke-1" fill="none" fill-rule="evenodd" stroke="#E6007E" stroke-width="2" />
      <path d="M0 27.6923L79.2381 27.6923L79.2381 0L0 0L0 27.6923Z" transform="translate(0 33.84253)" id="Fill-3" fill="#FFFFFF" fill-rule="evenodd" stroke="none" />
      <path d="M0 14L0 0L14.6387 0L14.6387 6.86536L3.55149 6.86536" transform="translate(40.736816 0)" id="Stroke-5" fill="none" fill-rule="evenodd" stroke="#E6007E" stroke-width="2" />
    </g>
  </g>
  <g id="REALISATIE" fill="#E6007E" transform="translate(4 24.423584)">
    <path d="M51.6137 29.0267L51.6137 30.6702Q51.8461 30.8279 52.2321 30.9566Q52.6181 31.0853 53.0497 31.1724Q53.4813 31.2596 53.8964 31.3052Q54.3114 31.3509 54.5936 31.3509Q55.4403 31.3509 56.204 31.1807Q56.9677 31.0105 57.5529 30.6287Q58.1381 30.2469 58.4826 29.6368Q58.827 29.0267 58.827 28.1468Q58.827 27.4827 58.5739 26.9681Q58.3207 26.4534 57.8891 26.0301Q57.4574 25.6067 56.8847 25.2581Q56.3119 24.9095 55.6727 24.594Q55.0502 24.2869 54.5729 24.0296Q54.0956 23.7723 53.7636 23.4983Q53.4315 23.2244 53.2614 22.8924Q53.0912 22.5604 53.0912 22.1038Q53.0912 21.6141 53.3153 21.2737Q53.5394 20.9334 53.8964 20.7176Q54.2533 20.5018 54.7099 20.4063Q55.1664 20.3108 55.6229 20.3108Q57.2748 20.3108 58.329 21.0413L58.329 19.4725Q57.5238 19.0491 55.7641 19.0491Q54.9921 19.0491 54.2492 19.24Q53.5062 19.431 52.9252 19.8211Q52.3441 20.2112 51.9872 20.813Q51.6303 21.4148 51.6303 22.2283Q51.6303 22.8924 51.8585 23.3863Q52.0868 23.8802 52.4852 24.2703Q52.8837 24.6604 53.4232 24.9842Q53.9628 25.3079 54.5853 25.6233Q55.1747 25.9222 55.6852 26.1919Q56.1957 26.4617 56.5692 26.7564Q56.9428 27.0511 57.1544 27.408Q57.3661 27.7649 57.3661 28.2464Q57.3661 29.1429 56.7311 29.6202Q56.0961 30.0975 54.8095 30.0975Q54.4359 30.0975 53.996 30.0228Q53.556 29.948 53.1203 29.8111Q52.6845 29.6741 52.2902 29.4749Q51.8959 29.2757 51.6137 29.0267ZM8.43359 31.1517L10.0937 31.1517L7.86084 27.574Q7.62012 27.1839 7.42505 26.8892Q7.22998 26.5945 7.03076 26.3621Q6.83154 26.1297 6.61157 25.9595Q6.3916 25.7894 6.09277 25.6565L6.09277 25.6233Q6.69873 25.4656 7.18433 25.1792Q7.66992 24.8929 8.0144 24.4861Q8.35889 24.0794 8.54565 23.5606Q8.73242 23.0418 8.73242 22.4192Q8.73242 21.6224 8.4585 21.0289Q8.18457 20.4354 7.69897 20.0369Q7.21338 19.6385 6.55347 19.4434Q5.89355 19.2483 5.11328 19.2483L1.56055 19.2483L1.56055 31.1517L2.95508 31.1517L2.95508 26.0882L4.10059 26.0882Q4.49072 26.0882 4.802 26.1836Q5.11328 26.2791 5.38306 26.4866Q5.65283 26.6941 5.91016 27.022Q6.16748 27.3499 6.44141 27.8147L8.43359 31.1517ZM13.399 31.1517L19.7076 31.1517L19.7076 29.8899L14.7935 29.8899L14.7935 25.7229L19.0933 25.7229L19.0933 24.4695L14.7935 24.4695L14.7935 20.5101L19.442 20.5101L19.442 19.2483L13.399 19.2483L13.399 31.1517ZM32.8825 31.1517L31.3385 31.1517L30.0768 27.8147L25.0299 27.8147L23.8429 31.1517L22.2907 31.1517L26.8561 19.2483L28.3004 19.2483L32.8825 31.1517ZM36.3039 31.1517L42.4797 31.1517L42.4797 29.8899L37.6985 29.8899L37.6985 19.2483L36.3039 19.2483L36.3039 31.1517ZM47.3704 31.1517L45.9759 31.1517L45.9759 19.2483L47.3704 19.2483L47.3704 31.1517ZM72.0849 31.1517L70.541 31.1517L69.2793 27.8147L64.2324 27.8147L63.0454 31.1517L61.4931 31.1517L66.0586 19.2483L67.5029 19.2483L72.0849 31.1517ZM79.1089 20.5101L82.5455 20.5101L82.5455 19.2483L74.2862 19.2483L74.2862 20.5101L77.7144 20.5101L77.7144 31.1517L79.1089 31.1517L79.1089 20.5101ZM87.4777 31.1517L86.0831 31.1517L86.0831 19.2483L87.4777 19.2483L87.4777 31.1517ZM92.2771 31.1517L98.5857 31.1517L98.5857 29.8899L93.6716 29.8899L93.6716 25.7229L97.9714 25.7229L97.9714 24.4695L93.6716 24.4695L93.6716 20.5101L98.32 20.5101L98.32 19.2483L92.2771 19.2483L92.2771 31.1517ZM2.95508 24.8265L2.95508 20.5101L4.86426 20.5101Q6.03467 20.5101 6.65308 21.0455Q7.27148 21.5809 7.27148 22.5354Q7.27148 23.0667 7.08887 23.4942Q6.90625 23.9217 6.58252 24.2164Q6.25879 24.511 5.8147 24.6688Q5.3706 24.8265 4.84766 24.8265L2.95508 24.8265ZM29.6203 26.5613L27.7526 21.4896Q27.6613 21.2405 27.57 20.6927L27.5368 20.6927Q27.4538 21.199 27.3459 21.4896L25.4948 26.5613L29.6203 26.5613ZM68.8227 26.5613L66.955 21.4896Q66.8637 21.2405 66.7724 20.6927L66.7392 20.6927Q66.6562 21.199 66.5483 21.4896L64.6972 26.5613L68.8227 26.5613Z" />
  </g>
</svg>