<?xml version="1.0" encoding="utf-8"?>
<svg width="20px" height="17px" viewBox="0 0 20 17" version="1.1" xmlns:xlink="http://www.w3.org/1999/xlink" xmlns="http://www.w3.org/2000/svg">
  <path d="M19.95 1.91191C19.2081 2.23615 18.4176 2.45107 17.5934 2.55543C18.4413 2.05105 19.0884 1.25846 19.3926 0.303123C18.6021 0.772715 17.7293 1.10441 16.7991 1.28952C16.0485 0.493196 14.9787 0 13.8116 0C11.5473 0 9.72438 1.83116 9.72438 4.07601C9.72438 4.39901 9.75181 4.70959 9.81914 5.00526C6.41891 4.84003 3.4102 3.21633 1.38902 0.7429C1.03615 1.35287 0.829172 2.05105 0.829172 2.80265C0.829172 4.21391 1.55859 5.46491 2.64587 6.18918C1.98877 6.17675 1.34413 5.98668 0.798 5.68728L0.798 5.73201C0.798 7.71225 2.2157 9.35706 4.07479 9.73596C3.74187 9.82665 3.37903 9.87013 3.00248 9.87013C2.74063 9.87013 2.47629 9.85523 2.22817 9.80056C2.75809 11.4143 4.26182 12.6007 6.04984 12.6392C4.65833 13.7238 2.8915 14.3772 0.978797 14.3772C0.643387 14.3772 0.321694 14.3623 0 14.3213C1.81171 15.4854 3.95883 16.15 6.27428 16.15C13.8004 16.15 17.9151 9.93846 17.9151 4.5543C17.9151 4.37417 17.9089 4.20024 17.9001 4.02756C18.7119 3.45362 19.3939 2.7368 19.95 1.91191" id="Fill-1" fill="#ffffff" fill-rule="evenodd" stroke="none" />
</svg>